<mxfile host="app.diagrams.net" modified="2021-01-12T20:05:02.959Z" agent="5.0 (Windows NT 10.0; Win64; x64) AppleWebKit/537.36 (KHTML, like Gecko) Chrome/87.0.4280.141 Safari/537.36" etag="IicVCkFy4T0wTr_betcf" version="14.1.8" type="github">
  <diagram id="HLG3dWMz-vnG8FyqTKQb" name="Page-1">
    <mxGraphModel dx="1359" dy="583" grid="1" gridSize="10" guides="1" tooltips="1" connect="1" arrows="1" fold="1" page="1" pageScale="1" pageWidth="827" pageHeight="1169" math="0" shadow="0">
      <root>
        <mxCell id="0" />
        <mxCell id="1" parent="0" />
        <mxCell id="eQF7VMQl4_3WZmh0o-om-1" value="Web User" style="shape=umlActor;verticalLabelPosition=bottom;verticalAlign=top;html=1;" vertex="1" parent="1">
          <mxGeometry x="50" y="50" width="30" height="60" as="geometry" />
        </mxCell>
        <mxCell id="eQF7VMQl4_3WZmh0o-om-8" value="" style="endArrow=classic;html=1;entryX=-0.002;entryY=0.081;entryDx=0;entryDy=0;entryPerimeter=0;" edge="1" parent="1" target="eQF7VMQl4_3WZmh0o-om-50">
          <mxGeometry relative="1" as="geometry">
            <mxPoint x="120" y="70" as="sourcePoint" />
            <mxPoint x="190" y="70" as="targetPoint" />
          </mxGeometry>
        </mxCell>
        <mxCell id="eQF7VMQl4_3WZmh0o-om-11" value="Collect Data" style="edgeLabel;html=1;align=center;verticalAlign=middle;resizable=0;points=[];" vertex="1" connectable="0" parent="eQF7VMQl4_3WZmh0o-om-8">
          <mxGeometry x="-0.1417" y="4" relative="1" as="geometry">
            <mxPoint x="8.04" y="4.36" as="offset" />
          </mxGeometry>
        </mxCell>
        <mxCell id="eQF7VMQl4_3WZmh0o-om-14" value="J Clarke Website" style="icon;html=1;image=data:image/png,iVBORw0KGgoAAAANSUhEUgAAAgAAAAIACAMAAADDpiTIAAAAA3NCSVQICAjb4U/gAAAACXBIWXMAAA63AAAOtwEcj1tBAAAAGXRFWHRTb2Z0d2FyZQB3d3cuaW5rc2NhcGUub3Jnm+48GgAAAppQTFRF////AAAAAAAAAAAAAAAAAAAAAAAAAAAAAAAAAAAAAAAAAAAAAAAAAAAAAAAAAAAAAAAAAAAAAAAAAAAAAAAAAAAAAAAAAAAAAAAAAAAAAAAAAAAAAAAAAAAAAAAAAAAAAAAAAAAAAAAAAAAAAAAAAAAAAAAAAAAAAAAAAAAAAAAAAAAAAAAAAAAAAAAAAAAAAAAAAAAAAAAAAAAAAAAAAAAAAAAAAAAAAAAAAAAAAAAAAAAAAAAAAAAAAAAAAAAAAAAAAAAAAAAAAAAAAAAAAAAAAAAAAAAAAAAAAAAAAAAAAAAAAAAAAAAAAAAAAAAAAAAAAAAAAAAAAAAAAAAAAAAAAAAAAAAAAAAAAAAAAAAAAAAAAAAAAAAAAAAAAAAAAAAAAAAAAAAAAAAAAAAAAAAAAAAAAAAAAAAAAAAAAAAAAAAAAAAAAAAAAAAAAAAAAAAAAAAAAAAAAAAAAAAAAAAAAAAAAAAAAAAAAAAAAAAAAAAAAAAAAAAAAAAAAAAAAAAAAAAAAAAAAAAAAAAAAAAAAAAAAAAAAAAAAAAAAAAAAAAAAAAAAAAAAAAAAAAAAAAAAAAAAAAAAAAAAAAAAAAAAAAAAAAAAAAAAAAAAAAAAAAAAAAAAAAAAAAAAAAAAAAAAAAAAAAAAAAAAAAAAAAAAAAAAAAAAAAAAAAAAAAAAAAAAAAAAAAAAAAAAAAAAAAAAAAAAAAAAAAAAAAAAAAAAAAAAAAAAAAAAAAAAAAAAAAAAAAAAAAAAAAAAAAAAAAAAAAAAAAAAAAAAAAAAAAAAAAAAAAAAAAAAAAAAAAAAAAAAAAAAAAAAAAAAAAAAAAAAAAAAAAAAAAAAAAAAAAAAAAAAAAAAAAAAAAAAAAAAAAAAAAAAAAAHx4VugAAAN10Uk5TAAECAwQFBgcICQoLDA0ODxAREhMUFRYXGBkaHCAhIiMkJicoKSorLC0uLzAxMjM0NTY3ODo7QUJDREVHSElKS0xNTk9RUlZXWFlaW1xdXl9gYWJjZGVmZ2hpamtsbm9wcXJzdHV2d3h5e3x9fn+Ag4SFhoeIiYqLjI2OkJGTlJWWl5iZmpyen6ChoqOkpaanqKmqq6ytrq+wsbK0tba4ubq8vb6/wMHCw8TFxsfJys3Oz9DR0tPW19jZ2tvd3t/g4eLj5Obn6Onq6+zt7u/w8fLz9PX29/j5+vv8/f60iJ+UAAALGklEQVR42u3d/39VdR3A8Tu+IwiigGKZXyAJEGwqlSKSCqJYCWiiYBFqUSSipaQYFPiFysBAUyIcmAoKjIwAEUUQU2EynMjGNnb/lxAUBe8+52wM3efc5/PX+znr0fv92u6XnWEuBwAAAAAAAAAAAAAAABSJkq8P++kfF5et2bi9srqGr1R15faNa8qenDt5+FltvpTl97114fp9eVqh6g1/m/TNE7r8s29+4h1zbt3eW3TLuSdm+z1vW2e8cXhl8uktvf0Oo5bUGmw86paN7tSC6+96p5/80amY1r2F1t9j+vvGGaMP7u3ZEuu/v8ooY/XRrNOOd/8/fM8YY1ZxY8lxvel/wQhjt3pAs9ff6d795he/+lldm/nt/1/Dy4bXBjXr2X+vyWVFza1NXv9J840tS55s4ocCZ28ys2x5o39T9j/Em7/M2T00/f4v/dC8smfflWn3f53f+2RS/bh0+5/UYFYZNSXV97/9Z9fYFM//fv5nWN2IxNf/Xv9l2kcXJ7z/9/4v4yr6hvbfxec/mfd6t0AAfzaf7FvU+P7Hm04xmNjY/vt/ZDjFoOYCLwCKWyMvAx5o8hdq2Ln+Rb5i/37nQJMXN6fgE0BdE75C1aKJV5d+rX2OVqBtnyHfv/kvu5uwvgNDvvhVSlalvvzdR67oaOytTbtL57ydeoXlX/xL4htSXlr/6NA2RTjeKJSUzkl7G++EY6/tsTPdhX8/z5xbs28sTPe7vN29jrlwZqrLXrzIiFu7wStSrfL3R191WprfAb1xhfHG4LLXUixzX++jrpmR4pLnTzXbOHQvS7HO3x51xZ7kC+a2M9lYtH0weZ8fnPK5C6YlHq+bZKwxGZv8duDXn53uXJF0uPJ7ZhqXSxLv7KjofOTwmMTv/++aaGy+XZ201TFHzia+ZvDzP0LXJW217NOTfeoTTs4zzRjdk/Shbp9PDt6RcHClX/pEqeSZhMXe8cnBDeFjb/Ys6jFGrEvCv/Cw4fCx8xM6GW6SsRqc8IuB8w+dmhw+9C9zjNeC8G4nHzq0NHimYYgxxuus8OdBSz8+0zb8MfBCU4zZrOBy97Q9eKQ0eGT/WYYYs1Mrg+stPXhkavDEQ2YYt/B6px488WzwxEAjjNsZwTcCzx48sS34GYAJxm5taL/bcrnODZ4BMi34HNDQOTcw+AzwHQOMXb+Ep/jRoYd3uwsofltCGx6duyv08OPGF7/fhTZ8V/jDwhuNL34jQhtekFseevhy44vfgNCGl+dWhx4eYHzx6xna8OrwzQC9jC8DaoK3BGwNPFpbYnoZ8GZgxVtzuwKPvmV4WfByYMW7cqGbh8sNLwsWB1ZcnQu9BCgzvCyYF9qxAAQgAAEIQAACEIAABCAAAQhAAAIQgAAEIAABGJ4AEAACQAAIAAEgAASAABAAAkAACAABIAAEgAAQAAJAAAgAASAABIAAEAACQAAIAAEgAASAABAAAkAACAABIAAEgAAQAAJAAAgAASAABIAAEAACQAAIAAEgAASAABAAAkAACAABIAAEgAAQgAAEIAABCEAAAhCAAAQgAAEIQAACEIAABCAAAQhAAAIQgAAEIAABCEAAAhCAAAQgAAEIQAACMDwBIAAEgAAQAAJAAAgAASAABIAAEAACQAAIAAEgAASAABAAAkAACAABIAAEgAAQAAJAAAgAASAABIAAEAACQAAIAAEgAASAABAAAkAACAABIAAEgAAQAAJAAAgAASAABIAAEAACQAAIAAEgAAEIQAACEIAABCAAAQhAAAIQgAAEIAABCEAAAhCAAAQgAAEIQAACEIAABCAAAQhAAAIQgAAEYHgCQAAIAAEgAASAABAAAkAACAABIAAEgAAQAAJAAAgAARB/ABvHkgEvNDsAsk8AAkAACAABIAAEgAAQAAJAAAgAASAABIAAEAACQAAIAAEgAASAABAAAkAAZCuA9deSAeubHYA/D8+EMgEIQAACEIAABCAAAQhAAAIQgAAEIAABCEAARR9AdeDBcsPLgvLAiqtzuwKPvmV4WbAjsOJdua2BR2tLTC9+JbWBFW/NbQg9QfQyvvj1Cm14Q2516OEBxhe/gaENr8ktDz18ufHF7/LQhpfnFoQevtH44ndTaMMLc3eFHv6r8cUv+C0+PXdN6OHK9uYXu/aVoQ2PDr9EyF9mgLG7NLjgQbnODaHH/2CAsZsd2m/DSbncm6EDb/soKHbbQ/vddvDAP4M/IkpNMG4XBNf77METPw+emGeEcZsTXO/UgycuDJ6oO9cMY3ZObeIP+DbBtwn5pwwxZouDy93T9uMzS4Jn8hebYrwuCu926aFDPwkfWmWM8VoZ3u3kQ4f6hQ/lrzTHWF2ZsNrzDx/7T/jUNncFROr0t8Kb3fjJuZ8ldPJSB7OMUcc1CYu989NQ6hIOPmaYMZqfsNYDZ356clnCyfwU04zPlKStrjhydHTS0frh5hmbYfVJW/3BkbOddiadrXJzWGSuqEra6e4un53+ZdLh/IHbzTQmtx9IXOn0zx3vtifxeP5PHY01Fh3mJ+/zg1M+f8WM5Avya88w2Tj0fjnFOu856pKee1NcsmOk2cZg5PYUy9x72tEXPZhPY/UlxtvaDV2dapUzj7ns1IpUl+WfPs+IW7N+S9LtcWePY6+8Kd2F+bp5F7lPsJVqM/TR+pRrHPeFi0vW5tP637zh3hG0Oh2veOTd1CtcXeCb+IL6fHofPjnxqgv7tDH2VvGNf8aQq25dVNWE9dUPLPR1Zuebqv7t8jK+YuU76pq8uIcKhtTt9TxFYcvJhX+UDKo2m2JQPaixJ5MJhlMMbmn85cQC08m+JwKvJ7tuNp+sa+wFwGHnvGdC2bYr4aPcIR+aUZbtTfxr38tqTSm7aoclf640psGcsqrh+jSfLE5SQFb3PyndZ8tjPAtkUu31uZSG7TWt7Nk7LJda6S7zypqKJv1rP+e9ZmLZ8nrfpv2OuatPhTPliZObfJvBzX43mBn7ftycG00GeBrIiFe/1bxbjbo+WGd48at7oEuz7zbrv8r8Yreq/3HdcPijd40wZjtvON6b+Lv/psoYY1V1f48WuOu4x92VRhmj96e3xPoP3S/8qwrjjM07d3Ztwb896DR6mXcEEaldMqrF/2m30ye/YrBxWHdbz9wJce7EpzwXtHI7F99yTu4EKhk05Zktng1apbrNT08e8KX86Xb7fiOnzl/6/LpXd1RW18QmeLdLbXT/d6ord2xa9/w/HvvF1X39J95SuTYUwLXmIwAEgAAQAAJAAAgAASAABIAAEAACQAAIAAEgAASAABAAAkAACAABIAAEgAAQAAJAAAgAASAABIAAEAACQAAIAAEgAASAABAAAkAACAABIAAEgAAQAAJAAAgAASAABIAAMqn3+JmPr3jxBNkUCmDTifpfXfH4zPG9bTaVUS8dyGfSgZdG2W6i0rXZ3P5ha0ttOGz8/izvP5/fP96OQ2Zke/0fm2HLjRub/f3n82PtuTGDa4ohgJrBNt2IlcWw/3x+pU0XNqI49p/Pj7DrgsqKJYAyuy6kW8bfAX5mfzfbLuCaYtl/Pn+NbRcwrXgCmGbbBcwpngDm2HYBi4ongEW2XcDDxRPAw7ZdwN3FE8Ddtl3AuOIJYJxtF3BmQ7Hsv+FM2y6kvFgCKLfrgiYUSwAT7LqgdluKY/9b2tl1YSOLI4CRNt2YWcWw/1n23Ki2y7K//2Vt7blx7edmff9z29ty0LiKLK+/wkdAibrfV5XV9Vfd191+U+gwbPZzm6tqMqVq83Ozh3WwWwAAAAAAAAAAAAAAAKBF/B8k3qXmqvohUgAAAABJRU5ErkJggg==;" vertex="1" parent="1">
          <mxGeometry x="240" y="40" width="60" height="60" as="geometry" />
        </mxCell>
        <mxCell id="eQF7VMQl4_3WZmh0o-om-15" value="" style="endArrow=classic;html=1;entryX=0.997;entryY=0.385;entryDx=0;entryDy=0;entryPerimeter=0;" edge="1" parent="1" target="eQF7VMQl4_3WZmh0o-om-47">
          <mxGeometry relative="1" as="geometry">
            <mxPoint x="220" y="92" as="sourcePoint" />
            <mxPoint x="120" y="91" as="targetPoint" />
            <Array as="points">
              <mxPoint x="200" y="92" />
              <mxPoint x="180" y="91" />
            </Array>
          </mxGeometry>
        </mxCell>
        <mxCell id="eQF7VMQl4_3WZmh0o-om-16" value="Display Data" style="edgeLabel;resizable=0;html=1;align=center;verticalAlign=middle;" connectable="0" vertex="1" parent="eQF7VMQl4_3WZmh0o-om-15">
          <mxGeometry relative="1" as="geometry">
            <mxPoint x="-7" y="-1.22" as="offset" />
          </mxGeometry>
        </mxCell>
        <mxCell id="eQF7VMQl4_3WZmh0o-om-18" value="" style="whiteSpace=wrap;html=1;aspect=fixed;" vertex="1" parent="1">
          <mxGeometry x="380" y="40" width="300" height="300" as="geometry" />
        </mxCell>
        <mxCell id="eQF7VMQl4_3WZmh0o-om-19" value="" style="endArrow=classic;html=1;" edge="1" parent="1">
          <mxGeometry relative="1" as="geometry">
            <mxPoint x="300" y="69.5" as="sourcePoint" />
            <mxPoint x="410" y="70" as="targetPoint" />
          </mxGeometry>
        </mxCell>
        <mxCell id="eQF7VMQl4_3WZmh0o-om-25" value="Request" style="edgeLabel;html=1;align=center;verticalAlign=middle;resizable=0;points=[];" vertex="1" connectable="0" parent="eQF7VMQl4_3WZmh0o-om-19">
          <mxGeometry x="-0.188" y="2" relative="1" as="geometry">
            <mxPoint as="offset" />
          </mxGeometry>
        </mxCell>
        <mxCell id="eQF7VMQl4_3WZmh0o-om-33" value="" style="endArrow=classic;html=1;" edge="1" parent="1">
          <mxGeometry relative="1" as="geometry">
            <mxPoint x="410" y="90" as="sourcePoint" />
            <mxPoint x="299.9966259765625" y="90" as="targetPoint" />
          </mxGeometry>
        </mxCell>
        <mxCell id="eQF7VMQl4_3WZmh0o-om-34" value="Response" style="edgeLabel;resizable=0;html=1;align=center;verticalAlign=middle;" connectable="0" vertex="1" parent="eQF7VMQl4_3WZmh0o-om-33">
          <mxGeometry relative="1" as="geometry" />
        </mxCell>
        <mxCell id="eQF7VMQl4_3WZmh0o-om-37" value="Contains app logic (MCV stack)&amp;nbsp;" style="icon;html=1;image=data:image/png,iVBORw0KGgoAAAANSUhEUgAAAgAAAAIACAYAAAD0eNT6AAAABHNCSVQICAgIfAhkiAAAAAlwSFlzAAAOxAAADsQBlSsOGwAAABl0RVh0U29mdHdhcmUAd3d3Lmlua3NjYXBlLm9yZ5vuPBoAACAASURBVHic7d17sG5nXR/w7wk5gSQSQkgIBOoJIQGhUC4JnjBFopZKUS42NNaO2BFvUFqkpX/QihURdPAyo8hFAogVbG0jWMdggtNqy2Uqkmi5C4bAhuBpbuRGkpOTnMPuH2u/6WZn77Pf/e613vWs5/l8Zn7DyMT9PmvxZn+/61nr3W8CAAAAAAAAAAAAAAAAAAAAAAAAAAAAAAAAAAAAAAAAAAAAAAAAAAAAAAAAAAAAAAAAAAAAAAAAAMPaM/YCgEEcl+RRSc5em9OTPCzJaUkekOSEJPdf+2cPJbkzycEkNyS5Nsn1Sb6Q5KokK0nuXt7SgWVQAKAOj0/yzCTnJXna2v99bE8/+3CSzyS5MskVST6c5LM9/WwAYAcemOQHk7wnyYEkq0ueA2uv/YNrawEABnJckouS/GG67fplh/5Wc3BtTRetrREA6MGjk/xquvvyY4f9dnN9kl9ZWzMAsIAnJXl3knsyfrDvdI4kuTTJ/t7PCgBUan+SyzJ+iPc1lyU5v9czBAAVeVKSS5J8I+OH9hDzkSQX9Ha2AGDiag9+RQAA1mkt+BUBAJrWevArAgA0RfArAgA0RPArAgA0RPArAgA0RPArAgA0RPArAgA0RPArAgA0RPArAgA0RPCXNYoAAIMS/GWPIgBArwT/tEYRAGBXBP+0RxEAYEcEf12jCMAm9oy9ACjI/iSvSfKcsRcyoBuT3JrkliS3rf13JyU5OcmDkpw60rqW4fIkP5/ko2MvBIAy7E9yWca/Uu17VpK8LclLkvz9dAG/nZOTPGPt/+fitZ8x9nH0PZclOX+OcwFApWoM/k8keVWSJ/R4np6Y5N+t/eyxj08RAGBhtd3jP5Lk0iTPyvC39c5N8u4k94x0rEOMZwQAKlfbFf+hdNv0Z/Z4juZ15tprH5pjnVMZOwIAlantiv/udFfhZ/d5khb0rUnemORgxj8vfY0dAYCJE/zLowgAMDrBPx5FAIClE/zlUAQAGJzgL5ciAEDvBP90KAIA7Jrgny5FAIAdE/z1UAQA2Jbgr5ciAMB9CP52KAIACP6GKQIADRL8zCgCAA0Q/GxFEQCokOBnXooAQAUEP4tSBAAmSPDTF0UAYAIEP0NRBAAKJPhZFkUAoACCn7EoAgAjEPyUQhEAWALBT6kUAYABCH6mQhEA6IHgZ6oUAYAFCH5qoQgAzEHwUytFAGATgp9WKAIAEfy0SxEAmiT4oaMIAE0Q/LA5RQCokuCH+SgCQBUEPyxGEQAmSfBDPxQBYBIEPwxDEQCKJPhhORQBoAiCH8ahCACjEPxQBkUAWArBD2VSBIBBCH6YBkUA6IXgh2lSBICFCH6ogyIAzEXwQ50UAWBTgh/aoAgASQQ/tEoRgEYJfiBRBKAZgh/YjCIAlRL8wDwUAaiE4AcWoQjARAl+oA+KAEyE4AeGoAhAoQQ/sAyKABRC8ANjUARgJIIfKIEiAEsi+IESKQIwEMEPTIEiAD0R/MAUKQKwIMEP1EARgDkJfqBGigBsQfADLVAEYI3gB1qkCNAswQ+gCNAQwQ9wX4oA1RL8ANtTBKiG4AfYOUWAyRL8ALunCDAZgh+gf4oAxRL8AMNTBCiG4AdYPkWA0Qh+gPEpAiyN4AcojyLAYAQ/QPkUAXoj+AGmRxFgYYIfYPoUAeYm+AHqowiwJcEPUD9FgHsJfoD2KAINE/wAKAINEfwAbKQIVEzwA7AdRaAigh+AnVIEJkzwA7BbisCECH4A+qYIFEzwAzA0RaAggh+AZVMERiT4ARibIrBEgh+A0igCAzo3yWUZ/4T0GfxvT3Jmj+cIgHHtS3JxkkMZP2f6msuSnNfnSZrXKela1eEdLLbkccUPUL/adgS+kS67Tu/zJG1lT5KXJ7l5SQe3jOB3xQ/Qln2pa0fg5iT/Kl1GD+KBSd5bwIH2Ffyu+AHaVtuOwKVJHtTrGUpyTpJPF3Bwgh+AvtVUBD6f5PF9nZinJbmlgIPabfDb6gfgaPaljlsDN6eHBwSfmOTGAg5mN8Hvih+AnahhR+DmJE9Z9ASck+RAAQch+AEYw9SLwHVJvm2nB31iks8VsHjBD8DYplwErkryLTs52HcWsGjBD0BJploELp73AC8sYLGCH4BSTbEI/MB2B3VSkhsKWOg8we+pfgDGtC/T+dTA9en+ns+WXlvAIrcLflf8AJRkKjsCP7vVAZya5LYCFij4AZii0ovAbUkeutnCf7mAxW0W/Lb6AZiSfSn31sAbNi722CTXFrCw9cHvih+AKStxR+C6dJl/r+8rYFGCH4AalVYEnr1+cb838mIEPwC1K6UI/O5sQccm+fpIi3CPH4DW7Mu4zwjcluR+SfLkEV7cFT8ArRtzR+CJSfKTS3xBwQ8A32yMIvBjSbcFP/QLHU7yjtjqB4Ct7EuXyYczfC6/LUk+OPCLXJ/k2/s8QwBQsf0Z/s/y/88k+eTAL/Lcnk8MANTu+Rk2mz+RJH874At8vPdTAgBtGPIC/Zpjkpw84OL/fMCfDQA1+98D/uxTjsnaZwEHcnjAnw0ANRsyQ485JslNA77Akwf82QBQs6cM+LNvTpLPZLh7DEeSnDfgAQBAjZ6WLkOHyudPD70DcEyS/5TkEQO+BgDU5JHpsvOYAV/jpmOSfGnAF0iSx6R7kvEVSY4f+LUAYKqOT5eVn0xyzsCv9cUkeXmG/azh+rkuyauiCADAzHHp/iz/V7O8PH5Z0v3FoWW9oCIAAJ0xgn825yXJ/TPeVxIeiFsDALRlttV/IONk713pykeS5I9HWoQdAQBaMeYV//r5o/WL+mcjL0YRAKBWpQT/bH5g/eKOT3JLAYtSBACoRWnBv5rk1mySre8sYGEbxzMCAEzN2Pf4jzYXb7bgMzPew4DbjR0BAEpX4hX/+rk7yVlbLf43C1igIgDAlJQe/LN509EO4uFJ7ihgkYoAAKWbSvCvJrkzc/xZ/lcWsFBFAIBSTSn4Z/OKeQ5sT5L3F7BYRQCAkkwx+FeTfCBdts/loUmuLWDRigAAY5tq8M9y8WE7PeAL0t0zGHvxi4yPDwKwWyV/nG+euSPJMxY9+H+Y7m8Gj30Qi44dAQB2aspX/LM5lOR7d3sivj/JPQUcjCIAwJBqCP7VJIeTXNTXSbkgXYiOfVCKAAB9qyX4V5PcmG73vld/J8nHCjg4RQCAPtQU/KtJ/k+SR/V6htY5Iclb0m0vjH2gfYyHBQHaM/WH+zbO4SRvzpKy7MlJPrzEgxt67AgA1K+2K/7VdDvz397nSZrHniQvSnL1LhZe2tgRAKhPbVf8q+my90XZwR/4GcIx6Z42/JuMf0L6GjsCANNX4xX/ytox7e3vNO2eIgBACQT/SBQBAMYg+AuhCACwDIK/UIoAAEMQ/BOxN8k/jyIAwO7UGvyvSHL//k5TeRQBABYh+CuhCAAwD8FfKUUAgM0I/kYoAgAkgr9ZigBAmwQ/SRQBgFYIfjalCADUSfAzF0UAoA6Cn4UoAgDTJPjphSIAMA2Cn0EoAgBlEvwshSIAUAbBzyj2Jrkk479Z+pwD6d54igBQsuPT/a46kPF/b/Y5l6Syb+er0bOSfCzjv1mGGjsCQIlqvOLfOJ9I99X2e3o6Z/Sk9uBXBIAStRD8ikChWgt+RQAoQYvBrwgUovXgVwSAMQj++44isCSC/+ijCABDEPzbjyIwEMG/s1EEgD4I/p2PItATwb+7UQSARQj+3Y8isCDB3+8oAsA8BH//owjMSfAPO4oAsBnBP/woAlsQ/MsdRQBIBP8YowisEfzjjiIAbRL840+zRUDwlzWKALRB8Jc3TRSBPUmel+SKjH/C+5rb0n1D1Njr6Gt86RDUqcYv6flSklsLWEdfc0W6jKyuCNR2xf/1JG9Mcnp8DTFQrhqv+FfWjunYJKck+bkkNxewrr6mmh2BmoN/I0UAKEXtwb+RIlCQloJ/I0UAGEtrwb+RIjCiloN/I0UAWJbWg38jRWCJBP/WFAFgKIL/6BSBAT07yZUZ/4T0NbcleX26N03f9ib50SRfLOA4+xqfGoBx1PhU/xeSvDj9BP9Gp6T73X5bAcfZ11yZLoOX7tFJLtnhYkuePq/4t2NHAFiUK/7dqXFH4NIkZ/V4jra0N8nrkty1xIMbcoa84t/ObEfg6h2st/SxIwDDcMXfr9p2BA4m+fkMeC5PS/KnBRxoH7PMK/7t2BEAtuKKf1i17Qh8OMnD+jxBSfLU1PEX70oK/o0UAWBG8C9XTUXgq0n293VinpVue2Hsg9rNjLnVv1NuDUC7bPWPq5ZbA3cm+e7dnoynp7tqHvtgFp2Sr/i3Y0cA2uGKvyw17AjckeQ7Fj0B5ya5pYCDWGSmdMW/HTsCUC9X/GWb+o7AzUmestODPjnJlwtY/E5nylf827EjAPVwxT8tU94RuCY7vBj+LwUseidTc/BvpAjAdAn+aZtqEXjvvAf44wUsdt5pKfg3UgRgOgR/XaZYBF683UGdmuTWAha63dR0j3+3PCMA5XKPv25TekbglmyTmb9awCKPNi1f8W/HjgCUwxV/W6ayI/BLWx3AGek+NjD2AjcbwT8/RQDGI/jbVnoROJjkkZst/M0FLG7j2OpfnFsDsDy2+lmv5FsDb9y42OOS3FjAwmbjir8/dgRgOK74OZoSdwS+luT+6xd5YQGLWo3gH5IiAP0R/OxEaUXgBesX9wcjL0bwL48iAIsT/OxGKUXg92cL2pvuiwPGWMStcY9/LJ4RgPm5x0+fHpJxnxG4I10G5LwRXtwVfznsCMDWXPEzpDF3BJ6SJC9b4gsK/nIpAvD/CX6WaYwi8JIk+e0lvNCdSX4htvqnwK0BWmarnzE9JF1WLuO2/G8lyYcGfpGvJHlsn2eIpVAEaIngpySPTfctfkO+P/5XknxqwBf4RpIL+j0vLJkiQM0EP6X6rnQZOtT75JPJsG/8v+j9lDAWzwhQE/f4mYIrMtz75atJ97eBh3qBN/V/PhiZIsCUCX6m5C0Z7n1zMBn2YYM3938+KIQiwJQIfqborRnu/XNHkvztgC/wsf7PB4VRBCiZ4GfK/jLDvY+uSYZ/CPA7+z4jFMnDgpTEw31M3VIeAlzGxwC/recTQ7kUAcYk+KnB47KkjwG+a+AXWU33nIG/+d8WRYBlEvzU4JQs7w8BvTNJ/sUSXmg2X0/yhigCLfGMAENyj58ajPGngH8ySc5d4gvORhFojyJAnwQ/NRjzy4CenIz/dcCviyLQErcG2A1b/dTglHS3xW/NOO+5O7Lu/fa+kRYxGzsC7bEjwE644qcGY17xr59L1i/qwpEXMxtFoD2KAEcj+KlBKcE/m+evX9xxSW4sYFGzUQTaowiwnuCnBqUF/2qSr6X79+ubvKmAhW0czwi0xzMCbXOPnxqMfY//aPPrmy34jHQPBoy9uM3GjkB77Ai0xRU/NSjxin/93JnkEVst/lcKWODRRhFojyJQN8FPDUoP/tm84WgH8ZCUuWWxcdwaaI9bA3Wx1U8NSt7q3zi3ZI7M/LECFjrv2BFojx2BaXPFTw2mcsW/fn5k3oP7vQIWu5NRBNqjCEyL4KcGUwz+1SS/v5ODPDndm3vsRe90FIH2KAJlE/zUYKrBv5ruG3l3nIlPTXfPYOzFLzKeEWiPZwTK4h4/NZjSPf7N5qas/c3/RZyf7qp67INYdOwItMeOwLhc8VODKV/xz+aOJM/Y7Yn4B0kOFnAwuxk7Au2xI7BcrvipwdSv+GdzZ5Lv6uukPCXJlwo4qN2OHYH22BEYlit+alDDFf9srkmyv9ezk+TUJP+jgIPrYxSB9igC/RL81KCm4F9N8sEkp/d5gtY7Nt3Jmvotgdm4NdCeGm8NXJfufbzln/js0SPWXuu6JR7f0GOrvz21bPXP5mCS12RJ7+GzkvzhEg9u6FEE2lNjEbg7yX9N8oIkJ/Z3qnJiku9P9x3idxdwnH2N4G9PbcG/mi6LH9XnSZrXs5NcucPFljyKQHtqLAKr6a4ILk/yU0memZ29p09JckG6h/o+kHp2/GYj+NtTY/BfmS6DF7ZnN//P637Gc9NtP5zbw88rwW1JfiPJr6X7HCX125vkh5O8Ot0OV40OJLkq3S/B29b+M0ketDYnJXlMkoePsrrhXZ3kF5K8J8nhkdfCcpyS5JVJXp7u/V2Dv0zy2iTvT1cEivGsJB/L+M2or/GwYHtqfFiw9VmJh/taU9vDfatJPpHkovRz4T4oRYCpUwSmPysR/K0R/AVRBJg6RWB6sxLB3xrBXzBFgKlTBMqflQj+1gj+CVEEmDpFoLxZieBvjeCfMEWAqVMExp+VCP7WCP6KKAJMnSKw/FmJ4G+N4K+YIsDUKQLDz0oEf2sEf0MUAaZOEeh/ViL4WyP4G6YIMHWKwO5nJYK/NYKfeykCTJ0isPNZieBvjeBnS4oAU6cIbD8rEfytEfzMTRFg6hSB+85KBH9rBD8LUwSYOkVA8LdI8NMbRYCpa7EIrETwt0bwMxhFgKlroQisRPC3RvCzNIoAU1djEViJ4G+N4GcUe5NckvHfLH3OrUleF0WgJXuTvCjdL52x33+LzseT/FAEf0tOSfe76taM//7rcy5J9+8khdqb5EeTXJ3x3yxDjSLQnj1JnpPk/UkOZ/z34HZzOMkfJXl2XCm1pNbgXz9XJ3lxFNqitBD8G0cRaNMjk/yHJJ/L+O/BjfPZJK9O8ojBjp4StRD8G0cRKECLwb9xFIF2PSHJa5JckXF2Bg4n+Yt0heTxAx8r5Wkx+DeOIjACwX/fUQTadkqSFyZ5Y5KPJLk9/b/Hbl/72b+e5MIkD17KkVEawX/fmWwRmNI9ur1JfjjdNuNZI6+lVLcl+Y0kv5bkppHXwnjul+ScJI9d+89HJTkjyWlr88AkD0j3C2s1yZEkB9OF/A1rcyDJF5NcleTzSb6w9s/RplOS/JskP5XkpJHXUqovJnl9kvek2yGjBzV+LGro8fFBoA81fpxv6FmJj73umuDf/SgCwCIE/+5nJYrAjgn+/kcRAOYh+PuflSgC2xL8w48iAGxG8A8/K1EE7kPwL38UASDpHuh7VQT/MmclioDgL2AUAWiT4B9/VtJgERD85Y0iAG0Q/OXNShooAjX+AZ8DSf6qgHX0Nf6gENSpxj/g81fpfgePvY6+ZvYHhar60qEar/ivS9eij187Rl9DDJSoxiv+9V/Le1y6q+evFrCuvmYlFewItBD8GykCQAlqD/6NFIFCtBj8GykCwBhaC/6NFIGRCP77UgSAZWg9+DdSBJZE8G9PEQCGIPiPThEYyJ503873xYx/QvqaA0lekf6Cf709SZ6X5MoCjrOv8akBGEeNT/VfkeS5GeZbao9P97u9tk8NvCgjfKvvU9N9N/jYJ6Cv6fuKfzt2BIBFuOLfnRp3BK5Icn6fJ2krJyZ5e7rvBR/7oPuYIa/4t2NHAJiXK/5+1bYjcCTJ29Jl9CDOTvLJAg60j1n2Ff927AgAm3HFP6zadgQ+keTRvZ6hJP8oyU0FHNxup7Tg30gRABLBv2w1FYFbkzy/rxNzYZJ7Cjio3Uzpwb+RIgBtEvzjqqUIHE7yT3d7Mr4nyV0FHMyiM7Xg30gRgDYI/rLUUATuTvJ9i56A705ysICDWGTGfLivbx4WhHp5uK9sU39Y8M4kF+z0oE9Pcm0Bi9/pTP2Kfzt2BKAOrvinZco7Atcnefi8B7onyR8XsOidTO3Bv5EiANMk+KdtqkXgTzLn/z7/toDFzjs1bfXvlFsDMB22+usyxVsDr9zuoM5IckcBC91uWrvi344dASiTK/66TWlH4M4kjzjawVxcwCKPNoL/6BQBKIPgb8tUisBbtjqAc9J9bGDsBW42gn9nFAEYh+BvW+lF4O5s8ZcC31XA4jZOy/f4d2v2jMAVGf9/x77GMwKUyj1+1iv5GYF3bFzsCUluK2Bhs3HF3y87AjAMV/wcTYk7Aremy/x7/VABi1qN4B+aIgD9EPzsRGlF4Jv+TPDlIy9G8C+XIgCLEfzsRilF4NLZgh6Q5NBIi3CPfzyeEYD5ucdPn8Z+RuCudGUkTx/hxV3xl8WOAGzOFT9DGnNH4GlJ10KW9YKCv2yKAHQEP8s0RhH4l0nyu0t4oa8l+dcR/FPg1gAts9XPmGa3Br6W4d8Xv5MkHxn4Rf463Z8YZloUAVoi+CnJGUk+l2HfHx9Mks8M+AJHkjy15xPDcikC1EzwU6rz0mXoUO+TTyXDPoX4od5PCWNRBKiJ4GcKhtyhP5B0HwcY6gXe1P/5YGSKAFMm+JmSN2W4981dybBf//vW/s8HhVAEmBLBzxS9LcO9f25Phv3YwSf6Px8UyMcHKZWP8zFln85w76MvJ8knB3yB1STP7/2UUCI7ApTEFT9T94IM+376eNJ9FGDIF7khyfk9nxjKpQgwJsFPDZ6e5MYM+776syR5+8Avsprk8Nrr7OvzDFE0RYBlEvzUYF+6rDyc4d9fv5kkP7GEF5rN3UneneTsvs4Wk+AZAYbiHj81+NYkb0xyMMt7n704SZ60xBecjSLQJkWAvgh+ajBG8M/m7ybJsel+kY3xhj+U5OK4NdCSPem2Nd0aYBG1bvU/L4K/JfvSZd+hjPc7636zxfznkRYxGzsCbbIjwLxc8VODMa/418+71y/qe0dezGwUgTYpAmxF8FODUoJ/Nt+zfnHHJrm2gEXNRhFokyLAjOCnBqUF/2q67wC4d/t/5pcLWNjG8YxAezwj0Db3+KnBvox7j/9o84ubLfjUlPsvnR2BNtkRaIcrfmpQ4hX/+rklyUO2WvzPFbDAo40i0CZFoF6CnxqUHvyz+ZmjHcQDk1xfwCK3G7cG2uPWQF1s9VODfSl3q3/jXJfkW7Y7oH9cwELnHTsCbbIjMF2u+KnBVK74189F8x7cOwpY7E5GEWiTIjAdgp8aTDH4V5O8dScHeWKSvy5g0TsdRaBNikC5BD81mGrwryb5TJITdnrAZ6f7vODYi19kFIE2KQLlEPzUYMrBv5ruvv9jFz34J2T47yQechSBNikC4xH81GDqwb+a5IasfeHPbpyX6f/L7FMD7fGpgeXyVD812JfpPNV/tLk5ybl9nZSzk3yqgIPa7dgRaJMdgeG44qcGNVzxz+ZzSR7X7+np/kbA+wo4uD7GjkB77Aj0yxU/NdiXOq74Z/PedFk9iD1JXpbkpgIOtI9RBNpTYxG4Pcnb0sP9vjk8Ye21bl/i8Q09gr89+1JX8N+ULpuX8h4+LcnbkxxZ0sENPYpAe2osAqtJ/jTJjyd5eH+nKmck+Ykkf1bA8fU5gr89+1JX8B9J93d7TuvzJM3r3CSX7WCxpY8i0J5ai8A31o7pdUlemOQx2eQrQDdxv3QfG/onSV6f5Mq1nzX28fQ5gr89+1JX8K+my97z+jxJi9ofRYBpq7UIrJ+D6f4oyJ8n+UCSS9bmT9b+u88muauAdQ41V0bwt2Zf6gz+8/s8SX15crpfKLVcMfjUQJtq+9RA6+Op/vbU9FT/bD6S5II+T9JQFAFqoAhMewR/ewR/QRQBaqAITGsEf3sEf8EUAWqgCJQ9gr89gn9CFAFqoAiUNYK/PYJ/whQBaqAIjDuCvz2CvyKKADVQBJY7gr89gr9iigA1UASGHcHfHsHfEEWAGigC/Y7gb4/gb5giQA0Ugd2N4G+P4OdeigA1UAR2NoK/PYKfLSkC1EAROPoI/vYIfuamCFADReCbR/C3R/CzMEWAGrReBAR/ewQ/vVEEqEFrRUDwt0fwMxhFgBrUXgQEf3sEP0ujCFCD2oqA4G+P4Gc0igA1eEaSSzPd9/FHkjwvgr8lgp9i7E9yWcZ/A/U1h5JcnGRfnyeJ4p2b5F1Jbs/478Ht5vYkv5XkqYOcCUq1L93vpkMZ/z3Y11ye5Pw+TxLjUASowUlJXpLkQ0mOZPz34WyOJPng2tpOGuzoKdG+CH4mQhGgFg9P8rJ07+cxdga+nuT9SV6a5PSBj5Xy7IvgZ6IUAWpyXJJnJvmZJP8tyTXp/z32lSR/kOTV6Z5N2LuUI6M0gr8irT+csz/Ja5I8Z+yF9OTuJP8xyS8m+fK4S2FkpyY5J8ljkpyVbsfgoUlOS3L/JA9e98+uJrkl3S/1G5Jcl+TaJFcnuSrJ3yT52rIWTpH2JfnpJD+SrnDW4ANJXpvko2MvhHH51ADAfXmqn2YoAgCCn4YpAkCLBD+sUQSAFgh+2IIiANRI8MOcFAGgBoIfFqQIAFMk+KEnigAwBYIfBqIIACUS/LAkigBQAsEPI1EEgDEIfiiEIgAsg+CHQikCwBAEP0yEIgD0QfDDRCkCwCIEP1RCEQDmIfihUooAsBnBD41QBIBE8EOzFAFok+AHkigC0ArBD2xKEYA6CX5gLooA1EHwAwtRBGCaBD/QC0UApkHwA4NQBKBMgh9YCkUAyiD4gVEoAjAOwQ8UQRGA5RD8QJEUARiG4AcmQRGAfgh+YJIUAViM4AeqoAjAfAQ/UCVFADYn+IEmKALQEfxAkxQBWiX4AaII0A7BD7AJRYBaCX6AOSgC1ELwAyxAEWCqBD9ADxQBpkLwAwxAEaBUgh9gCRQBSiH4AUagCDAWwQ9QAEWAZRH8AAVSBBiK4AeYAEWAvgh+gAlSBFiU4AeogCLAvAQ/QIUUAbYi+AEaoAgwI/gBGqQItEvwA6AINETwA3AfikC9BD8A21IE6iH4AdgxRWC6BD8Au6YITIfgB6B3ikC5BD8Ag1MEyiH4AVg6RWA8gh+A0SkCyyP4ASiOIjAcwQ9A8fYnuSzjB0xfcyjJxUnO7PEczevMtdc+NMc6pzKXJzm/x3MEQGFq2xE4kuS/J3lekj09nqfNPCPdubtnpGMdYlzxAzSmth2B1SSfSvLvk/y9Hs/Tk5L8dJJPF3B8fY4rfoDG1VgEVpN8Od02/UuTfEeSB89xLh689s++NMnbk3ylgOMQ/DCAobcLYUrOT/KzSZ4zizRENwAAAaBJREFU9kIGdFOSW9bm1rX/7kFJTk4X/vOUhKn6QJLXJvno2AsBoEy1PSPQ+rjHD8COKALTHsEPwK4oAtMawQ9ArxSBskfwAzAoRaCsEfwALJUiIPgBaJgiIPgBaJgiIPgBaJgiIPgBaJgiIPgBaNj5SS6NIiD4AWiSIiD4AWiYIiD4AWhY60VA8APQtNaKgOAHgHVqLwKCHwCO4vwkl2X8wO5rLl87JgBgDk9K8u4k92T8EN/pHEm3m7G/97MCAI04K8kvJbk24wf7dvN/k7whyaMGORMA0KC9SS5M8r4kd2b8sJ/NHUneu7a2vYMdPQCQE5NclOR3knw1yw/9a5L8dpIXJjlh4GMFBrBn7AUAvXhckmcmOS/JuUmekP6uxu9J8qkkV67Nh5J8vqefDYxEAYA67U2yL8k5Sc5O8tAkD1v7zxOSPCDJ8Wv/7MEkd6W7rXB9umcNrk/yhSRXJVlJcnh5SwcAAAAAAAAAAAAAAAAAAAAAAAAAAAAAAAAAAAAAAAAAAAAAAAAAAAAAAAAAAAAAAAAAAAAAAAAAoAb/D+xY1Cm3zg+xAAAAAElFTkSuQmCC;" vertex="1" parent="1">
          <mxGeometry x="470" y="50" width="90" height="80" as="geometry" />
        </mxCell>
        <mxCell id="eQF7VMQl4_3WZmh0o-om-38" value="" style="edgeStyle=segmentEdgeStyle;endArrow=classic;html=1;" edge="1" parent="1" target="eQF7VMQl4_3WZmh0o-om-39">
          <mxGeometry width="50" height="50" relative="1" as="geometry">
            <mxPoint x="420" y="230" as="sourcePoint" />
            <mxPoint x="450" y="190" as="targetPoint" />
            <Array as="points">
              <mxPoint x="420" y="230" />
              <mxPoint x="420" y="190" />
            </Array>
          </mxGeometry>
        </mxCell>
        <mxCell id="eQF7VMQl4_3WZmh0o-om-39" value="Web Server" style="text;html=1;strokeColor=none;fillColor=none;align=center;verticalAlign=middle;whiteSpace=wrap;rounded=0;" vertex="1" parent="1">
          <mxGeometry x="470" y="180" width="70" height="20" as="geometry" />
        </mxCell>
        <mxCell id="eQF7VMQl4_3WZmh0o-om-40" value="" style="edgeStyle=segmentEdgeStyle;endArrow=classic;html=1;" edge="1" parent="1" target="eQF7VMQl4_3WZmh0o-om-39">
          <mxGeometry width="50" height="50" relative="1" as="geometry">
            <mxPoint x="580" y="230" as="sourcePoint" />
            <mxPoint x="640" y="190" as="targetPoint" />
            <Array as="points">
              <mxPoint x="580" y="190" />
            </Array>
          </mxGeometry>
        </mxCell>
        <mxCell id="eQF7VMQl4_3WZmh0o-om-46" value="" style="shape=partialRectangle;whiteSpace=wrap;html=1;bottom=0;right=0;fillColor=none;" vertex="1" parent="1">
          <mxGeometry y="40" width="120" height="100" as="geometry" />
        </mxCell>
        <mxCell id="eQF7VMQl4_3WZmh0o-om-47" value="" style="shape=partialRectangle;whiteSpace=wrap;html=1;top=0;left=0;fillColor=none;" vertex="1" parent="1">
          <mxGeometry y="50" width="120" height="110" as="geometry" />
        </mxCell>
        <mxCell id="eQF7VMQl4_3WZmh0o-om-48" value="Front-end" style="text;html=1;strokeColor=none;fillColor=none;align=center;verticalAlign=middle;whiteSpace=wrap;rounded=0;" vertex="1" parent="1">
          <mxGeometry x="22.5" y="160" width="85" height="20" as="geometry" />
        </mxCell>
        <mxCell id="eQF7VMQl4_3WZmh0o-om-49" value="" style="shape=partialRectangle;whiteSpace=wrap;html=1;bottom=0;right=0;fillColor=none;" vertex="1" parent="1">
          <mxGeometry x="220" y="15" width="520" height="350" as="geometry" />
        </mxCell>
        <mxCell id="eQF7VMQl4_3WZmh0o-om-50" value="" style="shape=partialRectangle;whiteSpace=wrap;html=1;top=0;left=0;fillColor=none;" vertex="1" parent="1">
          <mxGeometry x="220" y="40" width="520" height="360" as="geometry" />
        </mxCell>
        <mxCell id="eQF7VMQl4_3WZmh0o-om-55" value="Back-end" style="text;html=1;strokeColor=none;fillColor=none;align=center;verticalAlign=middle;whiteSpace=wrap;rounded=0;" vertex="1" parent="1">
          <mxGeometry x="414" y="370" width="66" height="20" as="geometry" />
        </mxCell>
        <mxCell id="eQF7VMQl4_3WZmh0o-om-69" value="File system" style="icon;html=1;image=data:image/png,iVBORw0KGgoAAAANSUhEUgAAAgAAAAIACAYAAAD0eNT6AAAABHNCSVQICAgIfAhkiAAAAAlwSFlzAAAOxAAADsQBlSsOGwAAABl0RVh0U29mdHdhcmUAd3d3Lmlua3NjYXBlLm9yZ5vuPBoAABnuSURBVHic7d15tGVXQefxbyoVICRhCpMoBhCBSMzqFhEljGESgyLKKDRBnFBppG0VsZcSHJZDt8uFKAI27QJsZFgMyiREiIiAoIJABIICCjJE5gABklTSf5wqOxSVStWrd96+957PZ629Uq9Sde7vvpXc83vn7LN3AQAAAAAAAAAAAAAAAAAAAAAAAAAAAAAAAAAAAAAAAAAAAAAAAAAAAAAAAAAAAAAAAAAAAAAAAAAAAAAAAAAAAAAAAAAAAACwFEeNDrAQ16pusXdcpzquuubQRIz26epL1eerf6veX/1LdfHATMCCKADzOLY6o7p7dXr1jWPjsCb2VO+p3rh3vK76wNBEwMZSALbXt1Q/Wd2/usbgLGyGf6heVL2gqRwAsEK+vXpFdZlhzDheU31ftTsAhrpu9Yzq0safHIzljA9UZ1ZHB8COu1f1740/GRjLHec2zTUBYAccVf1K04St0ScAw7isem51/QCYzTHVsxr/gW8Y+4+PN00+BTgk7iEeut3VC6sHjg4CB3D16gHV8dU5TfNSADhCR1XPbPxPeYZxKOM11YkBcMTOavyHumEcznhvdfMAroCFgK7cXauzc7uE9fOp6n7VX40OAqweJ7WDu3b12qzqx3o6tnpI9b6mRwYB/oMCcHC/U91ldAg4Arur72+62veXY6MAq8QtgCt2m+ot1a7RQWCb/J/qUdlxEMjJ7WB+Md8fNssjq1c2bU8NLJwrAAd2SvWOfH/YTP/YtITwv44OAozjJ9wD+/Gc/Nlct67+prrt6CDAOE5yX+0q1YebdvqDTfal6hHV8wbnAAZwBeCr3SMnf5bhatVzqseODgLsPAXgq919dADYQbuaHnd9etMjg8BCKABf7fTRAWCAH6le3LSZEMDiXK26pPnWZ39PdWb1NZl/sWS7m/4bOLVpB7+nVu9v/P4Bl1V/X91ovrcOsJpOab4P1j9rWpoVrshdqlc1vgR8sKmcACzG/ZrnA/WfmvZrh0PxHU27+Y0sAZ+t7jX3GwVYFT/UPB+mP7aTb4KNcHz1jMaWgIurH537jQKsgp9qng/Sb9jJN8FG+YnmnZdyKOM3M2EY2HC/0DwfoCfs5Jtg45xRfa6xJeAFmcMCG0Wr/0pzzcy/dKbjsgwvr27fNDlvlPtX51Q3GJgB2EYKAKyHdzZNDnzrwAy3q95UnTwwA7BNFABYHx+p7ly9bGCGm1ZvqO46MAOwDRQAWC+fr763+v2BGa5d/Xn18IEZALbV/2ieCVTH7eSbYDF+qtrTuImBl1a/kVUtgQ2gALBu7ld9obFPCDyvaRltYI24BQDr7cVN9+PPH5jhgdVrso02rBUFANbfW5qeEHj3wAy3b3pC4BYDMwCHQQGAzfCB6rSmZ/VHuXn1xuqOAzMAh0gBgM3x6eqe1dMHZjixOrt6yMAMAIfNJEA2xU81zdIf+YTAWXO/SYDtogCwSR5QfbGxTwg8ozpm7jcKcKQUADbNnatPNrYEvLb62rnfKHB4zAGAzfa6phn67xuY4a7V25s2FAJWhAIAm++8po18Xj8ww4lNWwq/tWkJYZ89wEpxC4BNdrXq+Y29HbBvvL/6g6aVDL8+KwnCjts9OgCwY75UPajp5Pu4wVluWj1q79jns03zFWDpLmxa4vtfm67g/WP1V9VHt/NFFABYlsuqn2+aE/CUVusz4Jp7BzC53X5fv7t6afXs6twjPbj7cLBMf1idUV0wOghwyE6ufq56Z/W3TRNrt3weVwBguV5d3aH60OggwGH71qaJtec2lfnDpgDAsr2z+vam2fnA+jm5eln1oupGh/MXFQDgI9Wdqj8bHQTYsvs1rbdx70P9CwoAUNOM4++rnjw6CLBl1226GvDzh/KHFQBgnz3VY6ofqy4ZnAXYml3VrzeV+YOe4xUAYH9Pr767+tzoIMCWPbr6vYP9AQUAOJA/r05vmxceAXbUjzetcHtACgBwRf6uum31D6ODAFv2K9V9D/QvFADgYD5c3aU6e3AOYGuOqp7RtOfGV1AAgCvz2aaFRp42OgiwJSdWT93/NxUA4FBc3LRxz8ObNioB1su9mx71/Q8KAHA4nl3dufqn0UGAw/a/qmP2faEAAIfr76pTqyc2XRkA1sNNq4fu+0IBALbiS9VZ1Xc07VMOrIfHNU0MVACAI/L3TbcEzsjjgrAOblXdvhQAYHu8ovrP1R2btii1lDCsrofV3ssAM/i66puqW+799bWq47vc5IMVdXJ1ygzHfXE+EL/cNHv8s9VnqvdX76v+ufr0wFzM4ybVQ5pmHd+m+T5rgMP3sepG2/U/5TFNjxh8T3XX6mbbdFyW4bzqTdUbqlc2LT7D5jipukd1WtOcgVuOjQNUpxxpATipemzT5YTrHnke6LLqzdWLqv/btFc9m+UaTT8k3KzpSsG1q2OrEwZmglVxzaYr0bee+XUevdW/eOPqj6qLmj6wDWOOcVH1vKb7ygBL8m3V25vv8/UphxvomOpnm7YJHX1yMJY1/rq6QwDLcXz11ub5TH3N4QT5+qb7tKNPBMayx0urbwxgGb652tP2f5a+71AD3KP65AwBDGMr48KmK1FHB7D5Xt/2f45+/FDWAXhw9bLqOtv3XuCIHFv9VtMVqZsOzgIwt7fNcMwTrqwAPLxpJvZVZnhxOFK3bVqX/l6jgwDM6IIZjnnVgxWA+1TPyGqBrLbrVC+vfn50EIB1ckUn91OaHr/avYNZYKuOrn69+t+t/mqTACvhQAXguKaT/9V3OAscqR9qWknwWqODAKy6AxWA/9m0jj+so7s1rRlw0uggAKts/wJwm+pHRwSBbXTr6m+aJgkCcAD7F4Dfz7PVbIYbVudU9x0dBGAVXb4A3Ku63aggMIPjmrZiPmtwDoCVc/kC8PhhKWA+R1VPqJ6cq1sA/2FfAbhFdeeRQWBmj25aL+Aao4MArIJ9BeDMoSlgZ9yraU3tG48OAjDavgLwgKEpYOecWr1h7z8BFmtX009DtldlSW7cVALuMzoIwCi7q9N34HX2VOdXX9qB12I1HVddr9XZW+L4picEHl09bXAWgB23u/pPMx7/M9UvV8+qPjnj67Aejq6uX92+umf1XdXXDcyzu3pq9Q1NmwldOjALwI57RXXZDOP86lY7+D5YP7urh1bnNs9/g4czXlAdO+/bBdiSX22ez73Om+nAZ8zybWATHdV0Kf6LjS0Bb2q6QgGwSmYrAOfPcNBz5/kesOFOafzVgPflyhWwWmYpALuqE2YI+9czHJPNd27T/IBXDcxws+qN1V0GZgCY3a7mue/5qRmOyTJc0PR43tMHZrh2Uwl5+MAMALOa65Gsy2Y6LstwSfVj1WMbNzP/KtUzqyc1zVEA2Cir8kw2HMiTmlapvHBghsdUz62uNjADwLZTAFh1L2parOr8gRkeWL2maSEjgI2gALAO3lx9R/XugRlu3zQ58BYDMwBsGwWAdfGB6rTqnIEZbt5UAu44MAPAtlAAWCefrr6zaWnpUU6szq5+YGAGgCOmALBuLqrObHpCYNTTJlet/rg6a9DrAxwxBYB19aTqwY3bYfKo6gnVM6pjBmUA2DIFgHX2/Opu1ScGZnhk04Za1xyYAeCwKQCsuzc2PSHw3oEZ7t60/PVJAzMAHBYFgE3wz02P6b1+YIZTmnYT/NaBGQAOmQLApvhkdY/qOQMzfE31l9V9B2YAOCQKAJvky9XDqt8amOG46oXVr2VyILDCFAA2zWXV45o2E7pkUIajq19ouiVx60EZAA5KAWBTPb1pW+ELBma4XfWOpisC5gYAK2X36AAwo1dVd6heXt14UIZd1fftHe+vXt20nPGHqo9VnxmUC1bFnsYW9cVSANh076y+vXpp9S2Ds9ysetTeAXylC5qW+37v3vGW/n9ZZgZuAbAEH6nu1FQCgNV0jaa1NO5R/WT1zOqDTbuA/lJTgWYbKQAsxReq+1VPHh0EOCy3qp7YtN7Hy5vW/GAbKAAsyZ7qMU0bCe0ZnAU4PEdV31W9oWl+zy3Gxll/CgBL9KTq+5uuCgDr555NT9iclblsW6YAsFR/Wp1W/dvoIMCWXLVpR843VDcZG2U9KQAs2dubSsC5o4MAW/Zt1Zur24wOsm4UAJbug01rBZw9OgiwZddvemTwbqODrBMFAOqzTZOL/mB0EGDLTmh61PcOo4OsCwUAJpdUP1E9vmk/AWD9HNs0v+fk0UHWgQIAX+k3qgdUXxwdBNiS61QvaboiwEEoAPDVXljdvfrE6CDAltyi+r3RIVadAgAH9samPQQ8IQDr6eHVvUeHWGUKAFyx9zU9YvTM0UGALXlydbXRIVaVAgAH98XqEU1LCF84NgpwmL6h+vHRIVaVAgCH5snVKdVfjA4CHJafa3o6gP0oAHDoPtC0Bvl/qf5lbBTgEN2weujoEKtIAYDDc1n1x9Utm24LfGxsHOAQnDk6wCpSAGBrLmq6LXBS008XbxobBziI06qbjQ6xahQAODIXVc+pbl99c/XE6p1DEwH7O6o6Y3SIVaMAwPY5t2l/8lObfto4s3pa077lXx4XC6hOHx1g1eweHQA21Af2jmft/XpX9bVNjyVdr7p208xkzyizdEdXN6ru0bSC31zuNOOx15ICADvj0upDewfw1Y5qWr3vKdXVZzj+daobVOfPcOy15BYAAKvgsqZVN7+32jPTa9xypuOuJQUAgFVydv//1tl2u/FMx11LCgAAq2au/TdsEXw5CgAAq+ZdMx33GjMddy0pAACsmrk23jpmpuOuJQUAABZIAQCABVIAAGCBFAAAWCAFAAAWSAEAgAVSAABggRQAAFggBQAAFkgBAIAFUgAAYIEUAABYIAUAABZIAQCABVIAAGCBFAAAWCAFAAAWSAEAgAVSAABggRQAAFggBQAAFkgBAIAFUgAAYIEUAABYIAUAABZIAQCABVIAAGCBFAAAWCAFAAAWSAEAgAVSAABggRQAAFggBQAAFkgBAIAF2j3TcY+trj3TsQHYbFcfHWAJ5ioA/23vAABWkFsAALBACgAALJACAAALpAAAwAIpAACwQAoAACyQAgAAC6QAAMACKQAAsEAKAAAskAIAAAukAADAAikAALBACgAALJACAAALpAAAwAIpAACwQAoAACyQAgAAC6QAAMAC7Z7puK+sXjLTsQHYbFetfnd0iE03VwF4W/X0mY4NwGY7LgVgdm4BAMACKQAAsEAKAAAskAIAAAukAADAAikAALBACgAALJACAAALpAAAwAIpAACwQAoAACyQAgAAC6QAAMACKQAAsEAKAAAskAIAAAukAADAAikAALBACgAALJACAAALpAAAwAIpAACwQAoAACyQAgAAC6QAAMACKQAAsEAKAAAskAIAAAukAADAAikAALBACgAALJACAAALpAAAwAIpAACwQAoAACzQ7tEBAGZyreqM6t7VTaob5Ieei6t/r95Tvaw6u/ri0EQMowAAm+aE6meqn66OH5xlFd2yumP1I9XHql+u/rC6ZGQodt7S2zCwWW5evbn6pZz8D8UNq6dUf1ldf2wUdpoCAGyKW1dvqU4eHWQNnVa9obru6CDsHAUA2AQnVn9WXXt0kDV28+qF1TGjg7AzFABgE/xKdbPRITbAnaofHR2CnaEAAOvuZtUPjw6xQX6xOnZ0COanAADr7iG5bL2dblDda3QI5qcAAOvujNEBNtB9RgdgfgoAsO5uNTrABrrl6ADMTwEA1tlVm1b8Y3vdaHQA5qcAAOvskurS0SE20JdHB2B+CgCwzvY0rW3P9vrw6ADMTwEA1t3fjw6wgd46OgDzUwCAdfenowNsoJeMDsD8FABg3T2/+sToEBvkbU0bKrHhFABg3V1Q/eroEBvk5zKxchEUAGATPLl62egQG+C3q78YHYKdoQAAm+DS6qG5dH0knl89bnQIdo4CAGyKC6q7VM8anGPdXFI9sXpw02OVLIQCAGySL1VnNm1r+7rcyz6Yi6sXVqdWZ1WXDU3Djts9OgDADF7fdDXga6rvrG7StMvdUeMirYRLqvOr91Svrj4zNg4jKQDAJvto9UejQ8AqcgsAABZIAQCABVIAAGCBFAAAWCAFAAAWSAEAgAVSAABggRQAAFggBQAAFkgBAIAFUgAAYIEUAABYIAUAABZIAQCABVIAAGCBFAAAWCAFAAAWSAEAgAVSAABggRQAAFggBQAAFkgBAIAFUgAAYIEUAABYIAUAABZIAQCABVIAAGCBFAAAWKDdowMAzOwq1fWrr6uOH5xltE9XH63Or/YMzsJgCgCwiY6uHlI9qLp7dbWxcVbOZ6pXVs/e+08WyC0AYNOcXr2j6eR2n5z8D+RaTQXpFdXrqm8aG4cRFABgk/zX6lU5oR2OO1V/01SWWBAFANgUP1j9bm5tbsUJ1Yuarp6wEAoAsAluVz1tdIg1d0z1/OpGo4OwMxQAYBP8dtMJjCNzYnXW6BDsDAUAWHenV6eNDrFBfrDpkUk2nAIArLv7jw6wYXZX9x0dgvkpAMC6u9voABvo7qMDMD8FAFh3LldvvxuPDsD8FABgnV1972B7XW90AOanAADr7MK9g+318dEBmJ8CAKy7D48OsIF8TxdAAQDW3WtGB9hAfzE6APNTAIB19+LRATbMnupPR4dgfgoAsO5eXb1pdIgN8qzqg6NDMD8FANgEP1tdMjrEBvhM9YTRIdgZCgCwCd5Q/czoEGvu0uph1YdGB2FnKADApnhS9fimExmH58LqwdXLRwdh5ygAwCb5jeq7q/ePDrJG/ra6Q/WC0UHYWQoAsGleUZ1cPap6beYGHMgXm2b6P6C6XfW2sXEYYffoAAAzuKh62t5xfPX11Q2qo0eGWgEXVR+r/rX68uAsDKYAAJvu89W79g5gL7cAAGCBFAAAWCAFAAAWSAEAgAVSAABggRQAAFggBQAAFkgBAIAFUgAAYIEUAABYIAUAABZIAQCABVIAAGCBFAAAWCAFAAAWSAEAgAVSAABggRQAAFggBQAAFkgBAIAFUgAAYIEUAABYIAUAABZIAQCABVIAAGCBFAAAWCAFAAAWSAEAgAVSAABggRQAAFggBQAAFkgBAIAFUgAAYIEUAABYIAUAABZIAQCABVIAAGCBFAAAWCAFAAAWSAEAgAVSAABggRQAAFggBQAAFkgBAIAFUgAAYIEUAABYIAUAAFbbUXMcVAEAgNV2vRmOeaECAACr7Q4zHPNzCgAArK7vqU6e4bifVgAAYDV9U/WMmY79PgUAAFbLidV/r95UXXem1zhv90wHBoBV89PVI0eHuBJXrW5YHT3z6/yDAgDAUlxn76DOcQsAAJblPdW/KQAAsCzPLwsBAcDSPKcUAABYknOq80oBAIAl+dV9v1AAAGAZ/rp67b4vFAAA2Hx7qsdc/jcUAADYfL9fve3yv6EAAMBm+8fq8fv/pgIAAJvr89UDqgv3/xcKAABspourB1bvPtC/VAAAYPNcWv1w9cor+gM2AwKAzXJR9YjqTw72hxQAANgcn6ge1OWe978ibgEAwGZ4S3XbDuHkXwoAAKy7z1U/XZ1W/cuh/iW3AABgPV1UPat6QvWRw/3LCgAArJdPVH9c/U71wa0eRAEAgNX3/qZ7+y9terTv4iM9oAIAwFKc2xUsirNCLq0+W11Qfag6r3rX3l9vKwUAgKV4bvVro0OsCk8BAMACKQAAsEAKAAAskAIAAAukAADAAikAALBACgAALJACAAALpAAAwAIpAACwQAoAACyQAgAAC6QAAMACKQAAsEAKAAAskAIAAAukAADAAikAALBACgAALJACAAALpAAAwAIpAACwQAoAACyQAgAAC6QAAMACKQAAsEAKAAAskAIAAAukAADAAikAALBACgAALJACAAALpAAAwAIpAACwQLuqy2Y6LgBsxVznkDnOd2trV3XhDMe9wQzHBGAZbjjTcb8w03HX0q7qczMc9/RcBQBga+4x03EvmOm4a2lX9akZjntS9YMzHBeAzXZ89bMzHXuO891ae0nTfZHtHl+o7raD7wOA9XZc9fLmOSddVp28c29lPfxm832zL66eWn1bdexOvSEA1sZR1ddWj6z+qXnPR1fZofe0Fo6qHlQ9d3QQAJjR26pvGR1ileyqzsmjEQBstteMDrBqdlX/Xr19dBAAmJECsJ99j+o9b2gKAJjPx1MAvsq+AvDsas/IIAAwkz9pmgTI5ewrAB+uXjoyCADM4NLqaaNDrKLLr9b3y5kMCMBmeWH1rtEhVtHRl/v1x6pvrW4xKAsAbKc91Q80TXZnP/uv1//Y6ksjggDANvu96p2jQ6yqo/f7+tNNpeCuA7IAwHb5cPWA6sujg6yqow7we7uqV2cdfwDW06XVPfPo30EdaMveS6uHV+fvcBYA2A6/mJP/lTrQFYB9Tq1eV11rh7IAwJF6dnVmnmq7Uge6ArDPO6r7V1/coSwAcCRe0rSroJP/IThYAajpEspdq0/sQBYA2KpnVQ+sLhkdZF1cWQGoenN15+q8mbMAwOHa03TP/xFZ7vewHGwOwP5OqP6geuhMWQDgcHy06Zx0zugg6+hQrgDs87nqYdX3VB+YJw4AXKlLmyb7nZqT/5btvxDQoXhv9YdNheDU6rhtTQQAB3ZZ08Z1D62eUl04Ns56O5xbAAdy9ab7Lo+obnukYQDgAD5TPb/ppP/2wVk2xpEWgMs7ufru6vTqDrkyAMDWvad6bXV29efZp2bbbWcBuLxd1UnVLasbNy0mdHx11ZleD4D19dmm28qfarrNfN7erwEAAAAAAAAAAAAAAAAAAAAAAAAAAAAAAAAAAAAAAAAAAAAAAAAAAAAAAAAAAAAAAAAAAAAAAAAAAAAAAAAAAAAAAAAAAAAAgG3w/wCpoLGr2jwSIQAAAABJRU5ErkJggg==;" vertex="1" parent="1">
          <mxGeometry x="397" y="240" width="60" height="60" as="geometry" />
        </mxCell>
        <mxCell id="eQF7VMQl4_3WZmh0o-om-70" value="Mongo Database" style="icon;html=1;image=data:image/png,iVBORw0KGgoAAAANSUhEUgAAAgAAAAIACAYAAAD0eNT6AAAABHNCSVQICAgIfAhkiAAAAAlwSFlzAAAOSgAADkoBFJHOdgAAABl0RVh0U29mdHdhcmUAd3d3Lmlua3NjYXBlLm9yZ5vuPBoAACAASURBVHic7N13nGRVnf7xz8MEhiEOQ5AcJIPkLDljIIkBVJaVoOhiWhMiLoZVQHbVH6xKEgNiAAmiMkgWSYJkJCM5IyBpZpiZ7++Pc5rq7ume6XCrzq2q5/16nVf39GDdL9j3e566de85igjMrCxJ8wCL5DEpj0V6fV0EmACMA8b3+jp+lD8DmJ7HG/2+jvRnU4EX83ih19ee71+MiFlV/Hczs5GTA4BZdSTNBywLLM7gk3n/n00CFgRUoOQSAniZvqGg//f9f/Ys8FhEvF6iYLNO5ABgNkSSJpAm9+Xm8HVysQK7w/PAo8Bjg32NiKnlyjNrHw4AZrw5uS/DnCf3xYoVaMPxHHMOCY87JJg5AFiXkbQMsAawZv7a8/3SJeuylnsCuAu4O4+7gLsj4vGiVZm1kAOAdRxJ44BVmH2SX530WbvZYF4G7mH2cHB/RLxRsjCzqjkAWNuStAiNCb73u/qVgbEFS7POMwN4kF5XC3pGRLxYsjCzkXIAsLYgaSFgI2BTYJP8dbmiRZkljwJ/BW7IX/8WEf8qW5LZ3DkAWO1ImhdYj8ZEvwnpnX23PCZn7S1IVwd6AsENwK0RMa1oVWb9OABYUXkBnDXo+85+XRqL1Jh1gunAbfS9UnC3F0SykhwArKUkLQ1sSWPC3wjfmGfd6WXgbzQCwTUR8UTZkqybOABYU0laGNgO2CmPNYoWZFZvdwOX5HFFRLxUuB7rYA4AVilJ40nv8HcCdiS9yx9TtCiz9jQTuJFGILgmIqaXLck6iQOAjYokAevTmPC3BiYWLcqsM70GXAVcSgoEt4QbuI2CA4ANm6SVaUz4O+Alcs1KeA64jBwIIuLBwvVYm3EAsLmSNAbYFngPsDuwUtmKzGwA/wAuBH4LXBkRMwvXYzXnAGADysvp7kCa9PcibW9rZb1OepzsjTym9/s62Pdz+ntIj1yOy2Og74f79/M15d/ehuNZ4DxSGLjMyxjbQBwA7E15AZ6dSZP+nqR96q0605l9v/uBvg74s3Z5R5evGC2Sx6R+Xwf6Wf+vXgOiWi8A55PCwMVekMh6OAB0OUnzAbuRJv13AwuVrajtTCftLPdYv/E48CR9J/DXShXZTiRNpG9YWIq0VfOy/cbSOCwM17+AC0hhYEpEvF64HivIAaALSZofeCewL/AOYP6yFdXWa6SJvP/k/livnz/jO7HLyE+gLEEKAwMFhJ6f+6mUgb0K/BE4G/hDRLxauB5rMQeALpE/098D+BCwK/6ctseTNHZ2uwe4jzzJR8Q/SxZm1ZC0KI1AsCppW+ieHSSXKlhanbwOXAScAfzO9wx0BweADpcf2TsY+AiwZOFySpkO3E/fib5nK1fv2tbF8i6TPWGgdzBYhe79eOFp4MfAqX60sLM5AHSg/G5/T+BQ0vP63bKL3vP02qedxkT/YLvcQGf1kG9kXJnZg8EawOSCpbVSkBYcOhk431cFOo8DQAeR9FbgEOBAOv/d/uOkZVJvyF9viohny5Zk3UDS4sCGwMakpa43Jt1r0MmeBn4CnBIRDxSuxSriANDm8rv9vUjv9nekM9/tP0Oa5HvGDRHxVNmSzBokvYVGGOgZSxQtqjmCtPLgycB5virQ3hwA2pSkVWi82++kRvMCaYvUN9/dR8QjZUsyGz5Jy9P3KsFGdNbaGs/QuCpwf+FabAQcANqMpB2BL9EZ7/YDuA24HLieNNm7kVjHysF9Y2AzYHtgXTrjPL4UOCYiLi1djA2dA0CbkPQO4CvAFqVrGaV7SBuYXAZcHhHPF67HrBhJk0lBYIc8Vi9b0ahdC3wzIv5YuhCbOweAGssLnexFmvg3LFzOSD1MY8K/LCKeKFyPWW1JWppGGNgBWKFsRSN2E/BN0n0CnmRqygGghiTNA7wPOBJYp3A5w/U0fSd8P0dsNkJ5HY/egaDdnu65A/hv4DcRMat0MdaXA0CNSBpLWqnvCGC1wuUM1XTS539/JE34fy9cj1nHkrQWKQi8g3QfULssVnQv8G3gjIiYUboYSxwAakDSeODfSTf3rVi2miF5lbTv+DmkNcS9mp5Zi+VVDN8J7APsTnvs6fEQcAxwekRMn8s/a03mAFBQnvg/BnyB+i8k8k/SLmLnAH+KiKmF6zGzTNIEYBdSGHg3sGjZiubqceA44EcOAuU4ABQiaXfg+6TNSerqCeDcPK70pTuz+ssfJW4L7J3H0mUrmqP7gE9FxIWlC+lGDgAtlm/q+R4ppdfR/aR3+ecC1/sOXrP2lZ8k2owUBPYhbXJURxcAn/ZNw63lANAikiaSbu77PDBv4XL6e560DejpEXFr6WLMrDkkrUe63+hD1G9To2nAd4BvR8RrpYvpBg4ALSBpX+B/gOVL19LLLNJOX6eRntX153BmXSLff7QXcBBpx9B5ylbUxyPAf0bE2aUL6XQOAE2UH9k5gfTYTl08BJwO/MRr7JtZ3rPgQNKVgRWLFtPXZcDhfrS4eRwAmiA/nnM0cDgwtmw1AEwlfab/Y+BSf65vZv3l+wV2BD5CumdgQtmKAJhBehN1tB83rp4DQMUkfZj0OVYdVuy6hXSJ/xcR8ULpYsysPUiaBHyQ9BHB+oXLgbTC6Ocj4uelC+kkDgAVkbQwaY/s9xUuZSZwFnB8RPytcC1m1uYkbQR8DngvMKZwOb8BDo2IlwrX0REcACogaXPgl5T9/Gwq6bP94/0ojZlVLT/C/DnSvQIlPx54CNgvIq4rWENHcAAYhfyZ2ReBb1Dus/4XgB8A/y8inilUg5l1CUlLAJ8EPg5MKlTGDOAo4Fjf0zRyDgAjJOktwM9Jj9CU8Djwv8DJEfFKoRrMrEtJWgA4FPgs5ZYyvwT4cEQ8Vej4bc0BYAQk7Qb8FFiiwOHvIt1keEZEvFHg+GZmb5I0jrSw0OeBNQuU8AzwbxExpcCx25oDwDDkX/RvkxKvWnz4G0j7av/Ol7zMrG7yR6J7AEcCm7T48EG6InqE3xgNnQPAEEl6K/ArYOMWH/oR0jbBv/LEb2Z1l4PAB0jb/rZ69dMbgQ9ExAMtPm5bcgAYAkk7kBbSWaiFh32ZdLXhu95618zaTd6i+DOkPVAWbOGh/wXsHRGXtfCYbckBYC4k7U16xK9VG/jMBE4Fvuq7+s2s3eWnBr4OHEzr1hGYRnpU8NwWHa8tOQDMgaR/B06hdb+0F5E2wbizRcczM2sJSWuTNkXbtUWHnAkcEhGnt+h4badOO0DViqT/JC2j24rJ/05g94jYzZO/mXWiiLgzInYDdif1vGYbA5yWe7kNwAFgAJK+BRxP8+/0fwk4DFjPj7CYWTfIvW49Uu9r9pK+Ao7PPd368UcAvUiah7Sq3kdbcLiLgY9ExGMtOJaZWe1IWpa0S+nOLTjcScDHI2JWC47VFnwFIMvP+J9J8yf/V0m/hLt48jezbhYRj0XELqRlhV9t8uE+CpyZe73hKwAASJoInEPzb075C3Cgn1E1M+srr7XyE2CrJh/qImCfiHitycepva6/AiBpDHA+zZ38p5GWydzWk7+Z2exyb9yW1CunNfFQuwLn597f1bo+AJCWj2zmhj5/AzaMiOP92ZOZ2eAiYlZEHA9sSOqdzbITqfd3ta4OAJI+QtrWshlmAV8DNo+IvzfpGGZmHSf3zM1JPbRZb5w+meeArtW19wBI2hK4HBjfhJd/DfhgRJzXhNc2M+sakvYCfgFMbMLLTwe2j4hrmvDatdeVASA/enIjsGQTXv5JYI+IuLEJr21m1nUkbQz8DliqCS//NLBxNz6V1XUfAUiaDziP5kz+twObefI3M6tO7qmbkXps1ZYEzstzQ1fpugBAWt53oya87kXA2yPi0Sa8tplZV8u99e2kXlu1jUhzQ1fpqgAg6UvAfk146R8B74qIl5vw2mZmBuQe+y5Sz63afnmO6Bpdcw+ApJ1IybHK0DML+EJE/E+Fr2lmZnORN/k5jup7+q4RcUmFr1lbXREA8tKPtwOrV/zSB0dE1102MjOrA0kHAadW/LL3AG+LiDcqft3a6ZaPAD5B9ZP/UZ78zczKyT34qIpfdnXSnNHxOv4KgKTFgPuARSp82R9ERFf8gpiZ1Z2k/yNtKFSVF4FVI+K5Cl+zdrrhCsDXqXby/y1weIWvZ2Zmo3M4qTdXZRHS3NHROvoKgKR1gFuAqjZ9uJJ0g0gzN6owM7NhkjQv6UbvbSt6yZnA+hFxR0WvVzudfgXgu1Q3+d8O7OnJ38ysfnJv3pPqFgsaQ5pDOlbHBgBJe1DdLn9PALtFxEsVvZ6ZmVUs9+jdSD27CjvluaQjdeRHAJLGA3cAq1b0kntExAUVvZaZmTWRpHeT9g6own3AOhExvaLXq41OvQLwb1Q3+f/Gk7+ZWfvIPfs3Fb3cqqQ5peN0agCoarnfF4BPVvRaZmbWOp8k9fAqNGMJ+eI6LgBIWhLYpqKX+1xEPF3Ra5mZWYvk3v25il5umzy3dJSOCwDAPlRz5/9lEfHjCl7HzMwKyD38sgpeagxpbukonRgA3lfBa7wOHFrB65iZWVmHknr6aFUxt9RKRwUASW+hmsv//xsRD1TwOmZmVlDu5f9bwUttk+eYjtFRAQB4D6P/d5oFnFJBLWZmVg+nkHr7aMxDmmM6RqcFgCou0VwSEQ9X8DpmZlYDuadfUsFLddTHAB0TACQtBWxVwUtVvbe0mZmVV0Vv3yrPNR2hYwIA8G5G/+/zHHB+BbWYmVm9nE/q8aMxD2mu6QidFADWq+A1ft6Jyz2amXW73Nt/XsFLVTHX1EInBYC1K3iN0yp4DTMzq6cqenwVc00tdMxmQJKeBRYbxUs8GhHLV1WPmZnVj6RHgOVG8RLPRcTiVdVTUkdcAZC0BKOb/AH+UUUtZmZWa6Pt9YvlOaftdUQAAFao4DUcAMzMOl8Vvb6KOae4TgkAC1bwGg9W8BpmZlZvVfT6Kuac4jolACxUwWv4CoCZWeerotdXMecU1ykBoIo05gBgZtb5quj1vgJQI1X8n/FQBa9hZmb19lAFr+EAUCOvVvAa81XwGmZmVm9V9Poq5pziOiUAPFnBa6xUwWuYmVm9VdHrq5hzinMAaFi5gtcwM7N6q6LXOwDUyBMVvIavAJiZdb4qen0Vc05xnRIA/gmMdhMfBwAzs8432l4/nTTntL2OCACRNjR4apQv4wBgZtb5Rtvrn4oO2USnIwJANtrPZFaRNKaSSszMrHZyj19llC/TEZ//Q2cFgNF+JrMIsGsVhZiZWS3tSur1o9ERn/9DhwQASYcAu1fwUgdV8BpmZlZPVfT43fOc0/Y6IgAA8wMTKnidd3fKNo9mZtaQe/u7K3ipCaQ5p+11SgCoyjjggNJFmJlZ5Q4g9XjLHABm548BzMw6j3t7Pw4As1tD0lalizAzs2rknr5G6TrqxgFgYJ8pXYCZmVXGPX0ADgAD20dSFTeLmJlZQbmX71O6jjpyABjcDyR1xJ7PZmbdKPfwH5Suo64cAAa3LHBM6SLMzGzEjiH1chuAA8CcHSbp7aWLMDOz4cm9+7DSddSZA8CcCThF0vjShZiZ2dDknn0KqYfbIBwA5m5N4MulizAzsyH7Mql32xw4AAzNkZJ2K12EmZnNWe7VR5auox04AAzNWOBsSZuULsTMzAaWe/TZpJ5tc+EAMHTzA3+QtGrpQszMrK/cm/9Ah2zU0woOAMOzOHCRpLeULsTMzJLcky8i9WgbIgeA4VsJuFDSQqULMTPrdrkXX0jqzTYMDgAjsz5wrh8PNDMrJ/fgc0k92YbJAWDkdgDOkOT9pc3MWiz33jNIvdhGwAFgdN5LuidgUulCzMy6Re65F5F6sI2QA8DobQ9cK+mtpQsxM+t0uddeS+q9NgoOANVYHbjO+waYmTVP7rHXkXqujZIDQHUWAy6VtH/pQszMOk3urZeSeq1VwAGgWvMCv5D0X6ULMTPrFLmn/oLUY60iDgDNcbSkMyT5l9XMbIQkzSvpDODo0rV0IgeA5vkgcL2kdUsXYmbWbnLvvJ7US60JHACaaz3gBklfkjSmdDFmZnUnaYykLwE3kHqoNYkDQPONB74NXOWNhMzMBpd75FWknumVVpvMAaDh2Ca//hbALZI+IUlNPpaZWdtQ8gngFlKvbKZm9/q24QDQcAxwGDCriceYCJxIWj1w2SYex8ysLeReeBGpN05s4qFmkXr8MU08RltxAOglIn4EfBiY0eRD7QzcIenDTT6OmVlt5R54B6knNtMM4MO5x1vmANBPRJwJ7A1MbfKhFgZ+JmmKpLWbfCwzs9qQtLakKcDPSL2wmaYCe+febr04AAwgIn4P7Aa83ILD7QrcKulHkpZowfHMzIqQtISkHwG3knpfs70M7JZ7uvXjADCIiLiStM3k8y043Bjgo8B9+ZHBCS04pplZS0iakB/tu4/U61rxWPTzwA65l9sAHADmICJuBDYDbm/RIRciPf5yt6T9/LSAmbWzfHf/fsDdpN62UIsOfTuwWe7hNggHgLmIiAeAzYFftvCwKwBnkrYZ3rKFxzUzq0TuXdeSetkKLTz0L4HNc++2OXAAGIKIeC0i9gc+Q/OfEOhtM+BqSb+WtFILj2tmNiKSVpL0a+BqUg9rlRnAZyJi/4h4rYXHbVsOAMMQEd8DdgKebvGh3wfcI+l0SWu1+NhmZnMlaS1JpwP3kHpWKz0N7JR7tA2RA8Aw5RtKNgKua/GhxwEHktYPON8fDZhZHUjaUtL5pOf5DyT1qla6DtjIN/sNnwPACETE48C2wA8LHF7AHqSPBv4s6Z2+WdDMWinf3PdOSX8mXerfg9SbWu2HwLa5J9swOQCMUERMj4iPA7sDjxUqY2vg98Btkj4saWyhOsysC0gam1fvu43Ue7YuVMpjwO4R8fGImF6ohrbnADBKETEFWBs4rWAZ65BW1HpA0iclzV+wFjPrMJLml/RJ4AFSr1mnYDmnAWvn3muj4ABQgYj4V0QcTFo98NGCpSwPfB94WNI3JK1YsBYza3OSVpT0DeBhUm9ZvmA5j5JW9Ts4Iv5VsI6O4QBQoYi4iJSMTy1cymTgK8CDki7Jiwp5dUEzm6u8at9+ki4BHiT1ksmFyzoVWCf3WKuIA0DF8tWAQ0jrXJe8GgDpppwdSQtxPCHpREkbFK7JzGpI0gaSTgSeIPWMHSlzY19vjwK7RsQhftdfPQeAJomIP5HuDTgWmFa4HIBJwCeAmyTdJOkTkiaVLsrMypE0KfeCm4CbSD2iDn1hGql3rp17qTWBA0ATRcTLEfElYE3gt6Xr6WUD4ETSVYEzJe3oRwnNukN+hG9HSWeS3u2fSOoJdfFbYM2I+FJEtGJH1q7lANACEfGPiNiXtHbATaXr6WUCsB9wCel+gf+StHbhmsysCSStLem/SJ/rX0I69+t0b9BNpGf6942If5Quphs4ALRQRPwZ2AT4CPBk4XL6WxE4mrTS4L2SjpW0ua8MmLWn/E5/83wu30taqe9o0rleJ0+SeuImuUdaizgAtFhEzIqI04HVgG8BUwuXNJBVgS+QdvJ6XNIPJO0sqdVLfJrZMEgal8/VHwCPk87hL5DO6bqZSuqBq0XE6RExq3RB3cYBoJCIeCUijgTWID3i8kbhkgazFHAY8CfgGUk/l7SPpImF6zIzQNLEfE7+HHiGdK4eRjp36+gNUs9bIyKOjIhXShfUrRwACouIh/Njg6sCJwF1XtZyEeBDpJt0npN0nqR/k7Ro4brMuoqkRfO5dx7wHOmc/BDpHK2r6aQet2p+rO/h0gV1O68dXxP5ZPiYpP8GjiB9JjZv2armaD5gzzxmSLoeuAy4FLjW63ObVUfSeGAL0rP5OwCb0T79exrwY+DbEVF6bRTrpV1+gbpGPkE+LulbwBeBQ6h3EID0e/T2PI4CXpf0F1IYuAy4KSJmFqzPrK1IGgNsSJrsdwS2IoXudjINOAU4NiJKbZhmc+AAUFP5hDlc0rdJQeBQ6vXIzpzMB+ycB8CLkq4kB4KIuLNYZWY1lR/B7Znwt6Xel/PnZCpwMmnif6J0MTY4B4CayyfQp/IVgY8CH6O+N/cMZhEaHxcg6SnSlYHLgEsj4qFypZmVkTfr6rmkvwPwlpL1VOBJ4EfASRHxdOlibO4cANpEPqG+nq8IvAc4HNiybFUj9hZg/zyQ9BBwPXAjcAPpIwOvAGYdQ9KCpEv6mwAbkz7DX7FkTRW6BjgB+G1E1PVpJhuAA0CbySfYr4BfSdqQFAQ+QPt8PDCQFfN4f/7zrLxwyQ2kUHAjcHNEvF6kOrNhkDQfaWndjfPYhLTuRyc9dTWV1IdOiIg6rW5qw+AA0Mbyiffvkj5PulnwMGC5slVVYh7S+ghrAB/OP5sp6U4aVwluBG7z0wZWUr47f10aE/3GpE3AxpSsq4keBX4InBIRz5UuxkbHAaAD5BPx25KOA/Yi3SuwI531jmMMqdGuS3pEEmC6pNtIYeAm4C7gbjcmawZJi5FC6Zqky/kbk34fx5esqwVmkW7gPQk4z0/0dA4HgA6ST8zfAr+VtAzwQdI76HWKFtY842lcZn2TpOeBu4F78tee8aCbl81JfvxuZRpXoNYAVs9fJxcsrYQ7gJ8Dv4iIx0sXY9VzAOhQ+YQ9DjhO0gbAAaTdv5YsWlhrTKaxLkFv0yXdz+zB4J6IeKm1JVpJkhamMbH3nuhXofPf0c/J08AvgZ9FxM2li7HmcgDoAvlEvjnfK7AL6arAnrTfwiKjNR5YK48+JD1JCgb3AY/1HxHxrxbWaaMkaSFg2QHGqqSJvt0epW2m14HzSe/2/xQRMwrXYy3iANBF8on9R+CPuUG+l/QxwTZ07k1LQ7VUHtsN9JeSXqZvKHic2UPC8y2ptMtJmszsE/sy/f68YLEC28NM4M/AL4CzHHC7kwNAl8on/GnAafnmpj2BvYGdqP/SwyUsSLr5a83B/gFJU+kbEJ4EXgBezOOF/l8jYlpzy643SfMCk0iLRfX/2vP9UvSd4Nv5kdeSpgGXAOcC5/tmWXMAsJ6nCHrCwILAO4F9gN2BBUrW1mYmkD5DXmWo/4McGvoHgwHDAvAKaUe1N/KY3u/rbN+PdmEWSeNIH52My2Og7/v/bAHmPqn3fPVk3lyvABcC5wB/8AJb1psDgPWRG0TPQkMTSOv57wPsAXjb3+pNoPHxQ+UkQSMQDBQWYPAJflwzarKm+yfwO9Kkf3FETC1cj9WUA4ANKjeOC4ALJI0lbVCyJykUrFGyNhsWT+ad727gYtLNfFf6Rj4bCgcAG5LcUC7NA0nL0djxb0dg8XLVmXWdZ0nn4p+AS/I24mbD4gBgI5Ibzo+BHytdZ16fRiDYCn+2a1alqcBfSO/yLwZuiYgoW5K1OwcAG7XciG7O47h878DWNALBeoDKVWjWdgK4lcaEf5U/y7eqOQBY5XKj6mlcSFoE2Jy0Mt+WwKb46QKz3l4B/kraWvdq4LqIeLFsSdbpHACs6XIjm5JHz3rr65LCQM9YsVR9ZgU8RJrse8Zt3qfCWs0BwFouN7qejwz+D0DSUjTCwNtJ+6l385rs1jmmk37XryZP+BHxZNmSzBwAevNjUgXlhvjbPHoWoFmLdHNh77FIqRrNhuBF4JZ+4++jXZDJKuVenzkANKxAerTGaiA3zFvz+GnPzyWtyOyhYIXWV2jGw/Sb7CPioaIV2VC4X2QOAA0rATeWLsLmLDfYh4Dzen4maRKNMLA2abe31YAlWl+hdaBngHtJu0XeSWOyf6FoVTZSK5UuoC4cABr8S9GmciO+PI835acPVqMRCFbPY1W6bytkm7PXSVtB35NHz4R/r+/G7zju9ZkDQIN/KTpMbtx/zeNNeeGi5egbDlYFls8/X6i1lVqL/At4FHiENNm/OckDj3phna7hXp85ADSsXLoAa43c6B/J45L+fy9pYVIY6AkE/b9fBt9IVDdvkLZgfoTGJN/n+4h4qVx5ViPu9ZkDQINToQGQJ4rb85iNpHmAt9AIBkuT9kIYaCyCV0EcqSDdVf/sIOMJGhP9UxExq1Cd1l7c6zMHgIaVJC0ZEU+XLsTqLU80T+Rx3Zz+2byL4mIMHhAmAwuSVkZcoN/389P+4SGAV0kr3b0CvNzv++cZfIJ/zrvaWZUkLYkDwJscABrGAgcA3yldiHWOPIE9lcew5HsV5mfgcNDz5wmk391xI/wKMIN0CX0kX6fSd1LvP8m/6s/WrUYOwPPem/wfoq+DcACwmsgTZ89Eamajd1DpAupkntIF1MzqkrYqXYSZmVUr9/bVS9dRJw4Aszu4dAFmZlY59/Z+HABm915Jfg7czKxD5J7+3tJ11I0DwOwmAvuVLsLMzCqzH6m3Wy8OAAP7iqQFSxdhZmajk3v5V0rXUUcOAANbFjimdBFmZjZqx5B6uvXjADC4wyRtWboIMzMbmdzDDytdR105AAxOwKmSxpcuxMzMhif37lNp/9U0m8YBYM7WBL5cuggzMxu2L5N6uA3CAWDujpC0VukizMxsaHLPPqJ0HXXnADB344HT/FGAmVn95V59Gql32xw4AAzN5sBP8uYsZmZWQ7lH/4TUs20uHACGbj/g+NJFmJnZoI7HC7kNmQPA8HxW0mdLF2FmZn3l3uz+PAwOAMN3vCQnTDOzmsg92Vdoh8kBYPhEuh9gx9KFmJl1u9yLf4Kf9x82B4CRGQ+cI2n90oWYmXWr3IPPwXf8j4gDwMgtBFwkaZPShZiZdZvcey8i9WIbAQeA0VkCuFLSe0oXYmbWLXLPvZLUg22EHABGbz7gLElfLF2ImVmny732LFLvtVFwAKiGgGMknSppXOlizMw6jaRxkk4lbe/rG/4q4ABQrYOACyUtUroQM7NOkXvqhaQeaxVxAKjejsC1klYuXYiZWbvLvfRaUm+1CjkANMcawHWSti9diJlZu8o99DpST7WKOQA0z+LApZK+K2lC6WLMzNqFpAmSvgtcSuql1gQOAM0l4NPAq4a/IwAAIABJREFUzV4vwMxs7nKvvJnUO32zXxM5ADQ838TXXgO4RtLX/ZSAmdns8l3+XweuobmX/JvZ69uKA0DDLsA/mvj6Y4GjSPcGrN3E45iZtZXcE68j9cixTTzUP0i93nAA6O1BYGvgriYfZ0Pgb5I+J8n//c2sa0maR9LngL+RemMz3UXq8Q82+ThtwxNQLxHxOLANcFOTDzUv8B3SMsKrNvlYZma1k3vflaReOG+TD3cTsE3u8ZY5APQTEc8B2wNXteBwWwF35icFJrXgeGZmRUmalO/wv5PUA5vtKmD73NutFweAAUTEv4BdgSktONw40t2uD0j6tG8SNLNOlG/y+zTwAKnntaLXTQF2zT3d+nEAGEREvA7sCfyyRYecBHyXdEVgrxYd08ys6XJPu5PU41p1tfOXwJ65l9sAHADmICKmR8T+wOeAmS067KrAuZKukLRRi45pZlY5SRtJugI4l9TbWmEm8LmI2D8iprfomG3JAWAIIuJ/gJ2AZ1p42G2BGyT9VNIyLTyumdmoSFpG0k+BG0i9rFWeAXbKPdvmwgFgiCLiCtJjKte18LACDgDulfQNSZNbeGwzs2GRNFnSN4B7Sb2rlSv5XQdsmHu1DYEDwDDkR0i2BX7Y4kNPBL4CPCLp+5JWaPHxzcwGJWkFSd8HHiH1qoktLuGHwLZ+zG94HACGKd8X8HHgQGBqiw8/EfgkcL+kMySt2+Ljm5m9SdK6ks4A7if1plZP/FOBAyPi4/68f/gcAEYoIn4KbA7cXuDwY4EPArdKutDbDptZK0naXtKFwK2kXtTM5XsHczuwee7FNgIOAKMQEbcCGwPfBGYUKmM34DJJf5W0r5cXNrNmyMv27ivpr8BlpN5TwgxSz90492AbIU8Wo5Q/EjiKdDXgjoKlbAKcBdwj6aOSJhSsxcw6hKQJkj4K3EPqMSW3Nr+D9K7/KF/yHz0HgIpExN+AjYBv0bo1AwayCvAj4NG8xPA6BWsxszYlaZ28ZO+jpJ6ySsFyZpJ660a511oFHAAqlK8GHAlsAfy9cDmLkZbbvF3S9ZIOlbRQ4ZrMrMYkLZR7xfWkz9g/TeolJf0d2CIijvS7/mo5ADRBRNxAWjPgGOCNwuUAbAqcBDyZFxbapnRBZlYfkrbJC/c8SeoVmxYuCVLvPIb0bP8NpYvpRA4ATRIR0yLiCGAd4ILS9WQTSYtzXCnpXklHSFq6dFFm1nqSls494F7StrwH0PrH+AZzAbBORBwREdNKF9OpHACaLCLujYg9gJ0p88jgYFYlfab2iKQLJO3lnQjNOlvekW8vSReQFu35Fq1bo38obgd2jog9IuLe0sV0OgeAFomIS4ANgI8BzxYup7cxwLtIm3U8LukUSbtLGl+4LjOrgKTx+Zw+BXicdK6/i3Tu18WzpN64Qe6V1gIOAC0UETMj4iRS4j4eqNsNLYsDBwN/BJ6VdGZ+7nf+wnWZ2TBImj+fu2eSJtc/ks7txctWNpvppF64akScFBEln6DqOg4ABUTESxHxeWAtUhqvo4WA/UjP/T4n6XxJB0patHBdZjYASYvmc/R84DnSubsf6Vyuo3OBtSLi8xHxUuliulGJ5Rsti4gHgH0kbQQcBexBa3fPGqoJpNr2AGZIupJ08p4bEU8Urcysi+WbePfOY1vq39MD+B3wDT/PX17df1m6Qj4R9pK0HikI7EM9gwCk35kd8zghPy98LukS450RESWLM+tkkgSsDbyDNOlvRn17RW8BnEOa+L18b004ANRIPjH2zav3fQV4L/X+mEakJZA3B44FnpF0OWmd8Msi4v6SxZl1AkmrADvksT2wRNmKhmUW6aOIb0ZEyaXSbQAOADWUT5QPSDqaFAQ+QL3u2B3MEsD780DSo+QwQAoEjxWszawtSFqWxoS/A7Bc2YpGZCbwK9LEf3fpYmxgDgA1lk+cD0n6GnAEsD8wb9mqhmU54N/yQNJ9NALB5RFRp8chzYqQtDjpnX3PhF+n5/KHaxpwJvDtiLivdDE2Zw4AbSCfSB+R9EXgUNLzssuWrWpEVs3jo0BIuoMcBoDrI+KpksWZtYKkt5A+u++Z9NehPT7Hn5PHSBsGnexg3z4cANpIPrH+W9KxpBuADge2LlvViAl4Wx6fApD0GHBDr/G3iHihWIVmoyRpEmmX0E16jXYM74O5CjiB9ETQjNLF2PA4ALShfKKdBZyVnxw4nPTxwHxFCxu9ZfPYO/85JD1A31Bwc0S8Wqg+s0HlBbM2oO9k/1ba/919f6+TLvOf4Dv625sDQJvLJ+DBkr5AWunr48AKZauqjEh7kK9CWtAEYKaku+gbCm7zNqHWSnmp7HXpO9mvSXvcrDtSDwM/AE6NiH+WLsZGzwGgQ+QT8jhJ/wPsRtrZaw/SIj6dZAzpM9N1gH/PP5ue7ye4C7i717jPO4nZaEial3Tfyhq9xpqk379u2C9jKmnhnp8BU7xUb2dxAOgw+QT9A/AHSYsA7yOFgbcXLay5xgMb5tHbLEkP0TcU3A3cExHPtLRCqzVJSwCr03eiXwNYkXqvxdEsV5Mm/d9ExIuli7HmcADoYPnEPRk4WdJbSUHgw8BKRQtrnXmAlfN4R++/kPQCAwQD4AHfzNSZJI0lfSY/0EQ/qWBpdfEP4OfAz/Iy5dbhHAC6RD6h/ysvLrQV6dn891LfjUKabRKwRR69zZL0NOmxpsHG4/5ooV7ypfplaNxIOtBYku58Nz8n/yLdUPxT4C9eyru7OAB0mXyCXwVcJelw4N2kvQfeASxYsraamAdYKo9NBvuHJD3H3EPCK02vtgtIWoC5T+6LFSuw/bxM2rvjHOCCiHi9cD1WiANAF8sn/m+A3+R3UDuSHsHbk/rtG143i+Wx/mD/gKRXgBeAF/N4YYhfX4yIl5tZfKtJWhBYJI9JQ/za8/0CBUruNM8C55M27rrUV7AMHAAsyw3hj8AfJX2U9DHB3sBepBuhbPgWyGPYa7lLmgG8RN9w8AowHXgjj+n9vg72/Zz+HtJNlOPyGOj74f79AvSdzBfGvaaEh4DzSJP+XyJiVtlyrG58UtpscqP4cx6fkbQBjT3H1ylZWxcZC0zOw2yo7iBN+OdGxM2li7F6cwCwucqN5Gbgq5JWBnbOYwd897RZSS+Q9tO4GLg4Ih4sXI+1EQcAG5bcYE4CTpI0BtiYRiDYgnQZ2Mya4w3gWvKED9zoxXlspBwAbMRy47k+j2/mu7W3pREI1ipYnlmn+DuNCf9KP11iVXEAsMrkxvSHPJC0DLATsB2wJbBaseLM2se9wDXAFcAlEfF42XKsUzkAWNPkxvXTPJC0OCkIvD1/3RiYt1iBZuVNA24kTfhXA9fkbb/Nms4BwFomN7bz8+hZvW0j+oaCJYoVaNZ8z9Brsgf+5mfyrRQHACsmN75r8jgeQNIqpDCwGWlv9bcB85eq0WwUXgVuJz1Bcz1wdUTcX7YkswYHgIZFSAuuWEG5Qd5P42ODeUjbsa6fxwb565KlajQbwNPALaTJ/pY87vPiO7W0SOkC6sIBoGEl0spZViO5gd6Tx697fi7pLcweClbBm71Yc80iBdQ+k31EPFW0KhuObtkNda4cABpWAi4vXYQNTW64U/IAQNL8wJqk7V5X6/V1Nfwxgg3Pq6S78e8lhc+er3dFxKslC7NRcwDIHAAaVi5dgI1Obsw35tFHfiRxdWYPBysCY1pXpdXITNJVv/6T/D1+9K6juddnDgANToUdLDf0x0nLpr5J0njgraT7DJYnbdyzfK+xFA4I7Wom8CTwSK/xaP56H/BAREwf/H9uHcq9PnMAaPAvRRfKE8BdecxG0lhgaWYPB72/934IZbzA7BN77++fiIgZ5cqzmnKvzxwAGt5augCrnzyB9EwsA5I0AVh8GMN3IQ/sRdK+9UMaETG1UJ3W3tzrMweAhiUkbRkR15QuxNpLnogezWOuJI0DFiOFgcnAgsACefT+vv+fB/q70psvvQG8DLzSa7w8yPcD/d3zpAn9uYh4o9XFW3eR5MXGenEA6Otg0qI0Zk2TJ7on8xiVvE7C2FEMgBkjHX7O3drMwaULqBMHgL7eJ+lTEfFy6ULMhiJPwNPzMLNBSFoQeF/pOurEi6b0NT/wgdJFmJlZ5T6A1wPpwwFgdgeVLsDMzCrn3t6PA8DsNpO0TukizMysGrmnb1a6jrpxABjYf5QuwMzMKuOePgAHgIEdImnT0kWYmdno5F5+SOk66sgBYGDzAKfm57XNzKwN5R5+Kp7rBuT/KIN7G/CF0kWYmdmIfYHUy20ADgBzdpSk1UsXYWZmw5N791Gl66gzB4A5mxc4RZJKF2JmZkOTe/YppB5ug3AAmLutgUNLF2FmZkN2KKl32xw4AAzNdyStV7oIMzObs9yrv1O6jnbgADA0CwIXSlqxcB1mZjaI3KMvJPVsmwsHgKFbCpgiaXLpQszMrC9JiwFTSL3ahsABYHhWB/4gaWLpQszMLMk9+fekHm1D5AAwfJsBZ0nyVspmZoXlXnwWXut/2BwARuYdpEdMzMysrFNIPdmGyQFg5A6UdEzpIszMulXuwQeWrqNdOQCMzhclneKPA8zMWkfSWEmnAF8sXUs7cwAYvYNJjwguXLoQM7NOl3vthaTea6PgAFCNnYCrJa1QuhAzs06Ve+zVpJ5ro+QAUJ21gevz3tNmZlah3FuvJ/Vaq4ADQLWWBK6Q9J7ShZiZdYrcU68g9ViriANA9eYjrRPw+dKFmJm1u9xLzyL1VquQA0BzCDhO0i8lLVq6GDOzdiNpUUm/BI4j9VSrmANAc30AuEPSO0sXYmbWLnLPvIPUQ61JHACabyng95JOleQdqszMBiFpQUmnktb196Y+TeYA0PDbJr/+QcDtkrZv8nHMzNpO7o23k3plMzW717cNB4CGQ4DvN/kYKwCXSvq+JN/QYmZdT9J8kr4PXErqkc30fVKvNxwAeouI+DTwtSYfR8AngVskbd7kY5mZ1VbugbeQemKzb/T7Wu7x0eTjtA0HgH4i4migFb8kqwF/kfQ9SZOafCwzs9qQNEnS94C/kHphMwXw6dzbrRcHgAFExPeBjwAzm3yoMcCngPslfVrSuCYfz8ysGEnjJH0auJ/U+8Y0+ZAzgY/knm79OAAMIiJ+ArwPmN6Cwy0KfBe4U9JeLTiemVlL5d52J6nXtWJ9lOnA+3IvtwE4AMxBRJwD7Aw806JDrgqcK+kKSRu26JhmZk0jaUNJVwDnknpcKzwD7Jx7uA3CAWAuIuLPwIakTShaZVvgRkk/lbRMC49rZlYJSctI+ilwI6mntcr1wIa5d9scOAAMQUQ8DmwDnNTCwwo4ALhX0tckzd/CY5uZjYik+SV9DbiX1MNauYzvScA2uWfbXDgADFFETI+Ij5EWqZjWwkNPBL4KPCDpi5IWbuGxzcyGRNLCkr4IPEDqWRNbePhpwEER8bGIaMV9Wx3BAWCYIuLHwFbAIy0+9JLAMcAjko6V5GUyzaw4SUtJOpbUE4+h9Vv2PgJslXuzDYMDwAhExI3ARqSVq1ptIeALwD8knSyp2c/QmpnNRtJqkk4G/kHqSQsVKONSYKPck22YHABGKCKeA3YhLRr0WoES5iUtaXmXpLMlbVKgBjPrMpI2kXQ2cBepB81boIzXSL13l9yLbQQcAEYhImblBSbWA64qVMY8wHuAv0q6TNIuheowsw4maRdJlwF/JfWcUvPHVcB6EfH9iJhVqIaO4ABQgYi4n/SYy6coczWgx/bARZJulvRBSRMK1mJmbU7ShNxLbgYuIvWYUl4j9dhtc8+1UXIAqEgk/w9YFyj9/On6wBnAE5JOlLRB4XrMrI1I2kDSicATpF6yfuGS/gysGxH/LyK8mU9FHAAqFhEPANuRdrcqeTUAYBLwCeAmSTdJ+g9vPGRmA8kb9PyHpJuAm0i9o3S/eI3US7fLvdUq5ADQBPlqwAnA24Dfla4n2wA4gXRV4ExJO0pq5QIdZlYzSnaUdCbp3f4JpF5RB78D3hYRJ/hdf3M4ADRRRDwYEXuS9hO4o3Q92QRgP+AS4EFJX5W0fOGazKyFJC0v6avAg6ResB+pN9TBHaR1/PeMiAdLF9PJHABaICIuIX2G9nGgTo+srAh8jbSmwBRJ75e0QOGazKwJJC2Qz/EppGf3v0bqAXXxHKlHrp97pjWZA0CLRMTMiPghaTes7wJvFC6pt3mAXYFfAc9KOl/SgZJasWWnmTWJpEXzuXw+8CzpHN+VevX+N0g9cdWI+GFEzCxdULcYW7qAbhMRLwKflfQj4H+BdxYuqb8JwB55zJB0JWkbz/O8wYZZ/eUdRPcC9iY9nlznPv8H4LMRcW/pQrpRnVJgV4mIeyPiXaQ0fkPpegYxFtgROBF4VNJ1kr4gaZXCdZlZL5JWyefmdcCjpHN2R+o7+d8A7BoR7/LkX44DQGER8aeI2BTYHbi2dD1zIGAz4FjgPkm3522K1ytcl1lXkrRePgdvB+4jnZub0drtd4frWmD3iNg0Iv5UuphuV9d02HUiYgowRdJOpK00ty5c0tysk8dXJT0IXAhcBlwREf8sWplZB8r35GwH7EB6w7By0YKG5yrg6765r14cAGomnyCXSNqOFARKLr05VCuTFg35BBCSbiGFgcuAqyLi5ZLFmbUjSQuS3gjskMf61Pvd/UAuJ038V5QuxGbnAFBT+YS5QtJWpCCwc9mKhkykhUQ2AP6TdCPhDTQCwTURMbVgfWa1lPfu2JLGhL8J7dujLyZN/H8pXYgNrl1/ubpGPoF2kbQpafvLfYFxZasalrHAFnkcCUyVdC2NQPDXiJhRsD6zIiSNBTalMeFvQX0W4xmJN4Czge9FxF9LF2Nz5wDQJvIJtb+k/wQ+msdbylY1IhNIH2tsD3wDeEXSX4DrgRuBGyLi6YL1mTWFpCVJ7+o3Jt2stxXQCQtvPQWcBJwUEU+WLsaGzgGgzeQT7GhJ/w28Fzgc2LxsVaOyALBbHgBIeowcBvLXG31jobWTfMPexnn0TPrLFi2qeteR9g44KyLqtLCZDZEDQJvKJ9yZwJmSNiYFgfcD8xYtrBrL5rFXzw/ykwY30ggGN0XEv8qUZ9YgaSFgQxoT/ca01x36wzEN+DVwQkTcWLoYGx0HgA6QT8R/k/R54BDgUKDTNvhZOY/35T+HpHtpXCW4CbgrIuq014J1GEmLAWuSJvyed/er0X535w/XI8DJwCkR8UzpYqwaDgAdJJ+Y/y3pW6TnhQ8g3TTYCZ8z9idg9Tw+9OYPpeeBu/O4p9f3D3qNcRsKSWNIYXONPFbv9f3kgqW12ivAb4Gfktb38Ja8HcYBoAPlE/Vy4HJJnwD2IYWBHen81R8nA2/Po7fpku5n9mBwtz9K6E750v0azD7RrwKML1haSbOAS4GfAedExGuF67EmcgDocPkEPgM4I28S8iFSGFiraGGtN5707zzbv7ekJ2kEg/uAx3qNJ/yYYnvKj9ktTeOekmVJu3H2TPRLlauudv5OmvTP8KZf3cMBoIvkE/tY4Nh84+ABwAeAxYsWVt5SeQy06uIsSU/TNxQ8Bjze+3svbtRaedGcZWhM7L2/7xlL0vlXvEajZ3vgn/mGvu7kANCl8gl/o6TPkJYb3TuP5YoWVj/z0AgImwz2D0l6jtkDwpPAC8CLefR8/1JEzGpu2e1F0jzAwsAiwKT8tef7pZh9gl+sTKVt71HS9t7nkpbp9n0xXcwBoMvlBnBFHp+StBHpnoG9SXc729Aslsf6Q/hnQ9K/aASC/l8H+tkLpJuyppNWXHuj5/tSTTzfLDeO9PHKuF7fL0BjEu//daCfTQIWovPvpC/lLtKEf05E/K10MVYfDgDWR24QfwOOlLQ6jSsDm+AGXRWR3u0uXMmLSbPoFwr6fT/Qz3q+h9kn8P7fD/b3vrxeT0F6PPZc4NyIuKdwPVZTDgA2qNw4jgGOyTcQ7gXsSfrIoJ3XLO8085AWgOqERaBsZKaSttw9HzjPN/LZUDgA2JDkhvJ/wP/lG7C2Iu1QuAuwHr46YNZKAdwK/Im0895ffCOqDZcDgA1bbjSX5PFFSYsDO5ECwc503prnZnXwGGmyvxi4JCKeLVyPtTkHABu13Ih+mQeS1qARBrYDFixWnFn7epl0c+7FwMURcXfZcqzTOABY5XKjuhs4IS/GsiGwJWl1vi1Ji7OYWV9PANcAV+evN3kRKmsmBwBrqtzA/prH9wAkrUAKAj1jPWBMqRrNCphJ+gz/mp4REQ+XLcm6jQOAtVxudA/T+MhgfmBTGoFgC9Kz4Wad4gXgWhoT/l8j4tWyJVm3cwBo8DPNheRGeHkeSBJpzfYNSAvr9Iy3lKrRbBieAm7pNW4G7vNuerXhXp85ADQsC/yzdBH25m6G9+bx656fS1qS2UPBqviEtjJmkTaP6jPZR8TTRauyufFTSpkDQMNKwG2li7DB5cY6JQ/gzY8P1qURCNYm7fbmteKtSs+Rdou8k8Zkf5sv47ellUoXUBcOAA3+pWhDuQFfm8ebJE0mBYH+4610717vNmfTgQdIE32fERHPlyzMKuVenzkANPiXooPkht1zw9Wb8gY2K5H2g+8dDFYh3WPgjxM62yzSZ/T303eSvxv4h3fH6wru9ZkDQIN/KbpAbvD35/H73n8naRxp29nlgOXz1/5jcivrtWF7nrTlbf/xSP76eES8Ua48qwH3+swBoGHl0gVYWXlieCiPAUmayOyhYGlg8X5jUbw/QlWCdIPus/3GE/Sb6CPitVJFWttwr88cABreKmmBiHildCFWX3mC6blsPKj8UcNkZg8G/cdk0lLJPaPTd/SbRlritmc8z+wTe//xvC/NWxUkLUC6D8hwAOhtAvB+4LTShVj7yxPWM3kMWf4YYkFgAfoGg/5/7vnZfKTzeKQDYMYoxuvAK/Sd1Pv/+c2f+fK7FfZ+vJX5mxwA+joIBwArKE+Q/8RrUpg1w0GlC6gT3/Hc1xaS1ipdhJmZVSv39i1K11EnDgCzc0I0M+s87u39OADM7gBJXijGzKxD5J5+QOk66sYBYHaLAXuULsLMzCqzB14efDYOAAP7siTfIGlm1uZyL/9y6TrqyAFgYBsAny1dhJmZjdpnST3d+nEAGNzRkrxghJlZm8o9/OjSddSVA8Dg5gNOLl2EmZmN2MmkXm4DcACYsx0kfaR0EWZmNjy5d+9Quo46cwCYu+MlLVm6CDMzG5rcs48vXUfdOQDM3STgxNJFmJnZkJ1I6t02Bw4AQ7OvpKNKF2FmZnOWe/W+petoBw4AQ/d1SQeXLsLMzAaWe/TXS9fRLhwAhudHkrxKoJlZzeTe/KPSdbQTB4DhGQP8StKWpQsxM7Mk9+RfkXq0DZEDwPDNB1wgac3ShZiZdbvciy/Az/sPmwPAyCwKTJG0TOlCzMy6Ve7BU0g92YbJAWDklgf+JGm50oWYmXWb3Hv/ROrFNgIOAKOzFnC9pI1LF2Jm1i1yz72e1INthBwARm8p4EpJe5cuxMys0+VeeyWp99ooOABUYyJwtqTPlS7EzKxT5R57Nqnn2ig5AFRnHuA7kk6SNLZ0MWZmnULSWEknAd/B81Zl/B+yeocCf5S0cOlCzMzaXe6lfyT1VquQA0Bz7AxcI+mtpQsxM2tXuYdeQ+qpVjEHgOZZC7hV0kdLF2Jm1m5y77wV3+nfNA4AzTU/af+ACyUtXboYM7O6k7S0pAtJ6/rPX7qeTuYA0DC9ia+9G3CHpP2beAwzs7aWe+QdpJ7ZLM3s9W3FAaBhH+ClJr7+JOAXks6SNLmJxzEzayuSJks6C/gFqVc2y0ukXm84APR2NbA98GyTj7MvcKekdzf5OGZmtZd74Z2k3thMz5J6/NVNPk7bcADoJSJuBrYBHmvyoZYEfifpNEkLNflYZma1I2khSacBvyP1xGZ6DNgm93jLHAD6iYi7ga2BB1pwuI8A90n6qCTvY21mHU/SmHyH/32kHthsDwBb595uvTgADCAiHgK2It2M0mxLkO52vVVSM298MTMrKve4W0k9b4kWHPIOYKvc060fB4BBRMRTwLbAdS065NrAhZKmSFqnRcc0M2s6SetImgJcSOp1rXAdsG3u5TYAB4A5iIh/AtsBp7bwsLsCt+Q9BVqRkM3MmkLSEnkN/1tIva1VTgW2yz3cBuEAMBcRMS0iDgEOAaa16LBjSOte3y/pCEkTWnRcM7NRkzRB0hHA/aRe1qp7nKYBh0TEIRHRqn7dthwAhigiTiXdF/BICw+7IPAt4B5JH/SNgmZWZ/kGvw8C95B614ItPPwjpM/7W3nFtq05AAxDRNwIbARc0uJDLw+cAdwr6TBJ87X4+GZmg5I0n6TDgHtJvWr5FpdwCbBR7tE2RA4AwxQRz5GWqTymwOFXBn4APCzpK5IWLVCDmRkAkhaV9BXgYVJvWrlAGccAu+XebMPgADACETEzIo4A9qL5KwcOZHHgG8Ajkr4rqdVp28y6mKTlJX2XdNn9G6Se1GrPAntFxBERMbPA8dueA8AoRMT5pEdazi5UwvzAp4EHJP1M0tsK1WFmXUDS2yT9jLS4zqcpt1vf2cDauQfbCDkAjFJEPBsR7wU+AJS6BDUW+DBwm6Q/SNq2UB1m1oEkbSvpD8BtpF4ztlApzwEfiIj3RkSJq68dxQGgIhHxa9LVgHMKl/IO4ApJN0g61HsNmNlI5LX6D5V0A3AFqbeUdA7pXf+vC9fRMRwAKhQRz0TEe4D9gecLl7MxcBLwpKTTJW1VuB4zawOStpJ0OvAkqYdsXLik54H9I+I9EfFM4Vo6igNAE0TEL0lXA84rXQswETgQuErS3ZI+L6nZO2+ZWRuRtGTuDXcDV5F6xsSyVQGph66de6pVzAGgSSLi6YjYG9gduKt0PdnqwHHAY5LOkfROLy5k1p3yoj3vlHQOabvc40g9og7uAnaPiL0j4unSxXQqB4Ami4gpwLrA4ZS99wMwAAAWwUlEQVT/WKDHWGBv4PekNQW+KanE87tm1mKSVpb0TdKz+78n9YJSN/X19zypV66be6c1kQNAC0TEjIg4EVgV+B7wRuGSelsGOJK078Dlkj4hadnSRZlZdSQtm8/ty0nr8x9JOvfr4g1Sb1w1Ik6MiBmlC+oGDgAtFBEvRMRngHVIybtORNr58ETSAkPXS/qSpLpcEjSzYZC0ej6Hryct2HMi6RxX0cJm93tgnYj4TES8ULqYblKXyz5dJSLuBd4taWfgf0mBoE4EbJrHtyXdBZwLnOu1ts3qS9LGpEv6ewNrFi5nbu4APhsRF5cupFs5ABQUERdLWp+0iNBXgDUKlzSYNfP4sqRHSXfmngv82UtwmpWTb+LdhjTh7wUsV7aiIbkb+CbwK/ePsvwRQGF5X4FfkB4b3A/4e+GS5mY50k06lwFP5zUG9pBUh0eGzDqepIn5nDsdeJp0Lh5O/Sf/v5N63NoR8QtP/uX5CkBNRMQs4FeSfgPsCxxF/T4a6G8y6XnhA4Hp+bPGS/O4PiLqdLOjWVuSNA7YDNgxj82A8UWLGp47SBsGnZ37nNWEA0DN5BPkN5LOAvYBvkp6jLDuxgNb53E08Kqkq0jvTi4FbvHJbzZ3kuYB1idN9juQzqlSm+6Mxm3A14FzIiJKF2OzcwCoqXzC/DYv0rEX6YrABmWrGpb5gd3yAPinpCvIgSAi7i5VmFndSFqDxoS/HbBo0YJG52bSO/7zPPHXmwNAzeUT6FzgXElbA/9BujLQbv/fLUqqex8ASU/QuDpweUQ8XLA2s5aStAKwPY1Jf+myFY3ajP/f3p1H21mVdxz/PoSEJBBIgIAEwoyIqKAJDqgLjUFFF4RYtQ6gMhapQ6tg7dK60NKFbYVWbJUGBUUBRQGBJYMmwSwsiiSYKEqQoQwJEBJIJJDhhuTpH3sfzrmXe2/uved93/0Ov89ae53DDez30ZvzPs/Z7x4Ih/X8l7vfljoYGZqqJZFGix+s28xsCnAGcDpQ1X39pwAnxIaZrQAWAnfG14XaAlTqIJ69MT22I+JrVT+3fa0A5gAXuftjqYOR4VEBUEHxg/aluJ3n+wijAq9PG1XXdgfeHRsAccnhQtqFwSJ3fzpNeCJbZ2Y7A9NoJ/rplH92/kj8hrCx0I/dvSd1MDIyKgAqLH7wLgcuN7NphELgA8DYpIFlZ2pss1s/MLMH6RglIBQFa9OEJ01mZhMIyb7z232dz9TYAPwI+Ia7L0odjHRPBUBNxA/kSWZ2NvBR4CNUY/XAcO0f21/Hf3Yzuxe4i3CC2NLY7nP3jWlClDoxs+0I53i8LLZDgNcQTs4r27a6efg9cBnwPXdflToYyY4KgJqJH9DzgfPN7DBCMfAh6vPMsS+jfWPutMXMHqJdELzQ3H1loRFKJZjZZNp/lzrbvjRv07QVwBXAZe6+OHUwkg8VADXm7kuAz5jZ54C3E4qB46jPI4LBbEN7tOBdnX9gZqvppzAAHtQpZPVmZtsS/k70l+gnJQytDDYA1wPfA36uz0L9qQBogPhBvhG40cx2At5PKAbemDSwdCYBb4it06Y4arBskLZSa5vLycwMmAzsNUjbFxidKMSy+l9C0r/K3f+SOhgpjgqAhokf8IuBi83sAODDhLX5hyUNrBxGE571HjTIv9NjZsuB5QxcJDyhfc6zFQ+9eQkDJ/Y9Y6vSFrkpLSGs27/c3R9IHYykoQKgweIH/yvAV8xsf8KOg7OBI2neM8+hGgPsF9tANpvZE8DjwGpgTWyrt/K6pu5LqsxsDDAxtklbeW2934OQ/EclCLkutgC3EzYV+6m7P5g4HikBFQACQLwhXABcEDcumUUoBmagb1XDNYr2N9JhMbN1DFwkPAv0AJti6+nzOtD7wf4cwu93dGz9vR/un+/AwEldp0YWp4ew2+a1wHXaWEv6UgEgLxJvFHOAOWa2I2FzntnAMYSbu+RnfGxV3xpW0ngWuImQ9H/m7s8kjkdKTAWADCreQK4ErjSzsYQRgbfHdkjK2EQECPtf/Dy2+e6+IXE8UhEqAGTI4o3lxtgws72AownFwExg13TRiTTGKmAuIeH/wt2XJY5HKkoFgIxYvPFcClwal2C9mvbowBvR3AGRLPQQluq1vuX/TktRJQsqACQT8YZ0V2xfNbPxwFGEYuAowrbEmsUtsnWbCdvvLiAk/AXuvi5tSFJHKgAkF/GGdVNsmNkOwOsISwyPJJxeODFZgCLlsYZwut7tsd3h7s+mDUmaQAWAFCLe0ObF1tq17eW0C4IjgZcmC1CkOH+mnexvB/6kIX1JQQWAJBFveH+M7WIAM9uVsD3vG4HXAoej/dml2lYDi4HfEp7j/1on6klZ1KUA2JRBH9sThuIkkXhjvCE2AMxsH0Ih0GqvBvZJEqDI4B4GfkdI+IuBxe7+cNqQpB/bZ9BHFjknuboUAFlsdrEfYX93KZF4A30YuK71MzObyIuLgkPQIS9SjE2Etfd9k72+QFTDYNt4D1UtNliqSwGwNoM+9gN+lUE/krN4o/1lbMALe8wfGtvBhPkEBxMO9tH2szIS64D7gHsJz+3vJT62qvuZDTWXRQGQRc5Jri4FQFYjAFJR8Yb8u9heECcb7kW7IOgsDvZBhx413RbCCFNnkm+9X6bJebWkEYCoLgVAFtXY/hn0ISUTb+CPxjav88/MbDvgQEJBcBCwNzA1vu4N7FxosJKXp4FHYns0vt5HSPL3u/vGhLFJ8bK412sEoESymGijEYCGiTf+1kqEFzGz7eldEPR9PxUYW0iwMpANtAu8vkn+EeBRd38uXXhSQlnc62sxudPqMsJlZivpbi/6R91976zikWYws90IJ/dNHkKbBFiaSCvDCUvnVg6hPebuTyaKUyrKzB4hFO8jtcrdJ2cVT0p1GQGA8C3uqC7++6lmdqi79/ttUKQ/MQENKQmZ2ShCkdpZFOwCTCAcs7xDn/d9/3kCYQlTWbdU3gw8RxgefTa2zvd9/3kt8BS9k/oqd99ceOTSCGZ2KN0lfxhgxLCKVAD0dgrwmQxiEXmRmNhWxDZiZjaOdkEwlvA5HmkDeL6LtoGY1N19fTf/u0QKcEoGfagAKKElGfRxopl9Xkt8pMxiol1P+MYsIkMQlwqfmEFXWeSaUqjTEqgbCEt6urErMCuDWEREpFxm0d08MQg55oat/lsVUZsCwN0fJ5uNfE7NoA8RESmXLO7tv4q5phZqUwBEV2XQx8y4/7yIiNRAvKfPzKCrLHJMadStALia7h8DbAOclkEsIiJSDqfRfb7bQsgxtVGbfQBazOxW4C1ddrMeeKW7P9B9RCIikoqZHQD8ARjXZVe/dPe3ZhBSadRtBACyGaIZB8zJoB8REUlrDt0nf6jZ8D/UswC4hrAhSbdmmNnJGfQjIiIJxHv4jAy62kzILbVSu0cAAGY2H8hiqGY1cIi7d7Vxi4iIFMvMdgfuIWzB3a1b3T2LQqJU6jgCAHBlRv1MAi7MqC8RESnOhWST/CG7nFIqdR0BGAPcTTjiNQvHuXttNn8QEakzMzsWuD6j7u4DXlHHHWJrOQIQf1FnZdjlRWY2JcP+REQkB/FefVGGXZ5Vx+QPNS0AANz9emBuRt1NAW42s50y6k9ERDIW79E3E+7ZWZgbc0kt1fIRQIuZvQJYTHbHpy4A3uHuGzPqT0REMmBm2wG30P2psC2bgcPd/e6M+iud2o4AAMRfXJbr+Y8CLjezWv//JiJSJfGefDnZJX+AOXVO/lDzEQAAM9uVMIljYobdftPd/zbD/kREZITM7L+BMzPscg1wkLuvyrDP0qn9N9n4C/xyxt2eaWZfzLhPEREZpngvzjL5A3y57skfGjACAGBmowl7QR+ccdenuvt3Mu5TRESGwMxOAb6dcbf3Es6C2ZRxv6VT+xEAgPiL/ATdnxTY1xwz+2zGfYqIyFbEe2/WZ7ZsAT7RhOQPDSkAANx9LvCFjLvdBviamX3LzLbNuG8REenDzLY1s28BXyP7HPaFmCsaoRGPADqZ2RXAB3Po+hbgfe6+Noe+RUQaz8wmAD8G3pFD91e6+4dy6Le0mlgAjANuA6bl0P0fgHe7+6M59C0i0lhmNhX4GfDKHLpfBLzZ3dfn0HdpNa4AADCzvYCFwO45dP844eyAhTn0LSLSOGY2nbC3/x45dL8CmO7uy3Lou9QaMwegU/xFvwfIY3/nPYAFZnZ8Dn2LiDRKvJcuIJ/k3wO8p4nJHxpaAAC4++3Ax3PqfjxwtZmdo8mBIiLDFyf7nQNcTbin5uHjMRc0UiMfAXQys68Dn8rxEouAj7j7n3K8hohIbZjZy4HLyGeuVsuF7v7pHPsvPRUAZqMIp0fNzPEyG4EvAhe4e9Z7EYiI1ELc0/8zwLnAdjleai7wTnffnOM1Sq/xBQCAmY0HriGfpSWdfgV8zN0fyPk6IiKVYmYHAN8F3pTzpW4hPPdfl/N1Sq+xcwA6xb8IxwI/yvlSbwKWmFlecw9ERCon3hOXkH/y/xFwrJJ/oBGADnH46ZvA3xRwuV8AJzd19qmISFySfQlwdAGX+x/gTD2GbdMIQAd33+LuZwDnFXC5o4G7zeyMOA9BRKQRzGyUmZ0B3E0xyf88dz9Dyb83jQAMIB408e+AFXC5PwJnufvNBVxLRCQZM3snYR//Qwu4nANnu/v5BVyrclQADMLMTgIuBor6hn4L8Fl3/2NB1xMRKYSZHQqcT/6TrVs2A6e5+6UFXa9yVABshZnNBq4k3yUpnTYTzrf+krs/WdA1RURyYWa7AV8BTqW4L1MbgQ+6+7UFXa+SVAAMgZnNAK4FdizwsmsJcxH+w903FHhdEZGumdlY4O+BfwQmFHjpZ4DZ7j6/wGtWkgqAIYprVH8ITC/40o8Anwd+6PpliUjJmZkBHwC+Cuxd8OUXAh/QXitDo1UAQxT/Qh1JeIZVZCLeG7gCuMPMZsUPl4hIqVgwC7iDcM8qMvk74d58pJL/0GkEYATiLNbvAbsluPw9hNUJP3D3TQmuLyLyAjMbDZwAnA0ckiCEJ4GPahXV8KkAGCEzewnwffI9Q2Awy4ELgDnu/myiGESkocxsB+B0wt79eyYKYy5wors/kej6laYCoAtxOP4fgH8GUh37u5qwe+GFWjUgInmLs/o/BZwJTEoUxvPAPwH/qrlRI6cCIANm9nrCUsF9E4axAbgU+Jq7P5gwDhGpITPbHzgLOAkYmzCUhwhL/H6TMIZaUAGQETPbCZgDvD9xKJuBHxMKgUWJYxGRijOzaYTE/z6KW8c/kKuA0939L4njqAUVABkzsxMJk/R2Tx0LsBj4DnC5u69OHYyIVIOZTQI+DJwCHJ44HIAVhC19v586kDpRAZADM9sROAf4JOnmBnTaQNjI6BJgnp6ZiUhfcU7T24CTgdmkHeZveR74BnCOuz+TOpi6UQGQIzN7OeEv74zUsXR4iDBX4Lvu/kjiWEQkMTPbG/gY4dn+vkmD6W0+8El3/1PqQOpKBUABzOy9hE0qit4VazBbCEtovgP81N17EscjIgUxszHA8YQh/pmUa1O4RwiHov0kdSB1pwKgIGY2nrAn9tkUd7DQUD0F/AC41N2XpA5GRPJhZocRvumfAOySOJy+NhLmT53n7utSB9MEKgAKFpfS/CdwbOpYBnA/cA1hzsAdmi8gUl3xuf7rCM/03wMcmDaiAd0A/J2WMBdLBUAiZnYM8HXgoNSxDOIxQiFwLbDA3Z9PHI+IbIWZbQscRUj6s4EpaSMa1H3Ap939ptSBNJEKgITic7gzgM+RbivNoXqaUKVfA/xcRxSLlEc8evfthG/5xwI7p41oq5YD/wZcpPlH6agAKIFYCJxEOPZ337TRDMlzwE2EYuBnWp4jUry43PjdhKR/DLB92oiG5CHCMcGXKvGnpwKgROLQ3QmEyYIvTRzOUPUA84AbgflasiOSn7i0eAbwLsKa/TFpIxqyPwPnEU4x1aPEklABUEJmtg1hS+EvAK9IHM5wrSCs351PKAg0qUdkhOKk4RkdrQw7jA7H3cC/AFe5+5bUwUhvKgBKLM7gPR74IvCaxOGM1MP0LggeSxyPSGmZ2RR6J/x90kY0YncB5xL2GFGSKSkVABVhZu8iFAJvSB1Ll+6lXRDc6u5PJY5HJBkz2wV4K+2Ef3DaiLr2a+Bcd78xdSCydSoAKsbM3kaYLPg2wBKH0y0Hfg/cCtwBLHT3+9OGJJIfMzsQmE5Ym/9W4FXU43M8D/iqu89LHYwMnQqAioo3ktMIe3jvljaaTK0GFgELgTsJRYHOLJDKiXvsTweOiK/TgElJg8rWk8B3gYtVuFeTCoCKM7PRhHkCp1OPUYH+PEkoCFrtTnd/Im1IIm1m9hLaib7V6lSYt7S+7c8hPN/flDge6YIKgBoxswNojwpUbbbwcC2nY5QAuMvdV6YNSZrAzCYTJuV2frsv+0Ze3VpB+9v+A4ljkYyoAKihOCowizAqMJN6jgr05ylgaUe7N74+6O6bUwYm1WJmo4D9gZcRJua9rKOV7RCdvDjhxNA5wHX6tl8/KgBqLq4jPhU4mfqPCgykh3DIUd/CYKl2MWy2uJteK7F3JvoDqc4mO1lbAVwCfFv7eNSbCoCGiKMCxxF2GnwHMC5tRKXxOL0Lg/uAZcAyd386ZWCSDTPbGdgrtoPonej3SBhamawHbiEcC369vu03gwqABjKz7Ql7iL+XsKVoFfYQT2EdYa7Bsn5a6+dPaqOTNOJGWbsREvuetJN8Z9sTGJ8qxpJ7jrCF908IZ3o8lzgeKZgKgIYzs3HAO4G/IpwitmPaiCqnh3Bscn8FwuOEZY1rgDXuvi5VkFViZuOBibFNInxL7y/BT6G5w/Qj9QzhVM+rgZvdfX3ieCQhFQDyAjPbDjiaUAzMol5rlsugh1AMrN7Ka78/q8pExjiBrjOBd77297O+r0rq2VoNXEdI+r9w942J45GSUAEg/YpzBmYQioHjgclpIxLCc9oeYFNsPX1eB3o/2J9DSLijY+vv/XD/XPNL0lsJ/JSQ9Ofrmb70RwWAbFX8RncUoRg4BtgvbUQi0o//A24iJP0FVRkxknRUAMiwxaWFMwk7D84Adk0bkUgjrSIcqjUPmKslezJcKgCkK3Em9uG0C4I3o1nXInlYB9xGTPjAYq1AkW6oAJBMmdkY4EjaBcERwKikQYlU02bCNtdzY7vd3XsG/09Ehk4FgOTKzHYC3kIoCGYSNl8Rkf4tpZ3wf+nuf0kcj9SYCgAplJlNIYwQvJYwOjANmJA0KJE01hKOvr4T+C3hG/5jaUOSJlEBIEmZ2TaEUYFWQfBa4FVoLbjUSw/we0KibyX8pe6+JWlU0mgqAKR04oZEh9EuCI4gFAlNOdVQqs0JQ/mtRH8nsEQb8EjZqACQSointk2j90jB1KRBiQSP0vub/SKdMilVoAJAKsvMJtL7nPZD4uv+wLYJQ5P6eR54kPDN/h7aJ0gudfc1KQMTGSkVAFI7cRvjA2kXBK3i4GA04VAGt5ZwLHRnkr8HuF/b6UrdqACQRjGzPek9WtB6PyVlXFK4x3hxkl/q7suTRiVSIBUAIoCZjSUcOTuVcNRsf6/a8rgaVhGeyy8b4HW5u29IF55IOagAEBmiWCQMVBy0XndJFmAzPMXgyX2ZkrvI0KgAEMmQmY0jFAOTaZ9x39+5933fT6A5yxyd8Kx9dWxr+nnf92crCcl9fYqARepIBYBICcQNkSYycNEwERgLjCZsktR6HdPlzyBsUtMDbOrzOtKfbSAk7YGS+RptgCOS3v8D/uw/QCj+4zIAAAAASUVORK5CYII=;" vertex="1" parent="1">
          <mxGeometry x="553" y="240" width="60" height="60" as="geometry" />
        </mxCell>
        <mxCell id="eQF7VMQl4_3WZmh0o-om-71" value="" style="edgeStyle=segmentEdgeStyle;endArrow=classic;html=1;" edge="1" parent="1">
          <mxGeometry width="50" height="50" relative="1" as="geometry">
            <mxPoint x="483" y="210" as="sourcePoint" />
            <mxPoint x="463" y="250" as="targetPoint" />
            <Array as="points">
              <mxPoint x="483" y="250" />
            </Array>
          </mxGeometry>
        </mxCell>
        <mxCell id="eQF7VMQl4_3WZmh0o-om-72" value="" style="edgeStyle=segmentEdgeStyle;endArrow=classic;html=1;" edge="1" parent="1">
          <mxGeometry width="50" height="50" relative="1" as="geometry">
            <mxPoint x="513" y="210" as="sourcePoint" />
            <mxPoint x="543" y="250" as="targetPoint" />
            <Array as="points">
              <mxPoint x="513" y="250" />
            </Array>
          </mxGeometry>
        </mxCell>
      </root>
    </mxGraphModel>
  </diagram>
</mxfile>
